# Blender 4.3.0
# www.blender.org
mtllib login.mtl
o Text
v 3.400000 -0.000000 0.130000
v 3.400000 0.682000 0.130000
v 3.498000 0.682000 0.130000
v 3.498000 -0.000000 0.130000
v 2.915942 -0.006124 0.130000
v 2.885870 0.002343 0.130000
v 2.857937 0.016156 0.130000
v 2.832296 0.035074 0.130000
v 2.809099 0.058853 0.130000
v 2.788500 0.087250 0.130000
v 2.770650 0.120022 0.130000
v 2.755704 0.156926 0.130000
v 2.743813 0.197719 0.130000
v 2.735130 0.242157 0.130000
v 2.729808 0.289999 0.130000
v 2.728000 0.341000 0.130000
v 2.729808 0.392001 0.130000
v 2.735130 0.439843 0.130000
v 2.743813 0.484281 0.130000
v 2.755704 0.525074 0.130000
v 2.770651 0.561978 0.130000
v 2.788500 0.594750 0.130000
v 2.809100 0.623147 0.130000
v 2.832296 0.646926 0.130000
v 2.857938 0.665844 0.130000
v 2.885870 0.679657 0.130000
v 2.915942 0.688124 0.130000
v 2.948000 0.691000 0.130000
v 2.980058 0.688124 0.130000
v 3.010130 0.679658 0.130000
v 3.038063 0.665844 0.130000
v 3.063704 0.646926 0.130000
v 3.086900 0.623147 0.130000
v 3.107500 0.594750 0.130000
v 3.125350 0.561978 0.130000
v 3.140296 0.525074 0.130000
v 3.152187 0.484281 0.130000
v 3.160870 0.439843 0.130000
v 3.166192 0.392001 0.130000
v 3.168000 0.341000 0.130000
v 3.166192 0.289999 0.130000
v 3.160870 0.242157 0.130000
v 3.152187 0.197719 0.130000
v 3.140296 0.156926 0.130000
v 3.125349 0.120022 0.130000
v 3.107500 0.087250 0.130000
v 3.086900 0.058853 0.130000
v 3.063704 0.035074 0.130000
v 3.038062 0.016156 0.130000
v 3.010129 0.002343 0.130000
v 2.980058 -0.006124 0.130000
v 2.948000 -0.009000 0.130000
v 2.929635 0.595999 0.130000
v 2.912575 0.590074 0.130000
v 2.896875 0.580344 0.130000
v 2.882593 0.566926 0.130000
v 2.869783 0.549939 0.130000
v 2.858500 0.529500 0.130000
v 2.848801 0.505728 0.130000
v 2.840741 0.478741 0.130000
v 2.834375 0.448656 0.130000
v 2.829759 0.415593 0.130000
v 2.826949 0.379668 0.130000
v 2.826000 0.341000 0.130000
v 2.826949 0.302332 0.130000
v 2.829759 0.266407 0.130000
v 2.834375 0.233344 0.130000
v 2.840740 0.203259 0.130000
v 2.848801 0.176272 0.130000
v 2.858500 0.152500 0.130000
v 2.869782 0.132061 0.130000
v 2.882592 0.115074 0.130000
v 2.896875 0.101656 0.130000
v 2.912574 0.091926 0.130000
v 2.929634 0.086001 0.130000
v 2.948000 0.084000 0.130000
v 2.966365 0.086001 0.130000
v 2.983425 0.091926 0.130000
v 2.999125 0.101656 0.130000
v 3.013407 0.115074 0.130000
v 3.026217 0.132061 0.130000
v 3.037500 0.152500 0.130000
v 3.047199 0.176272 0.130000
v 3.055259 0.203259 0.130000
v 3.061625 0.233344 0.130000
v 3.066241 0.266407 0.130000
v 3.069051 0.302332 0.130000
v 3.070000 0.341000 0.130000
v 3.069051 0.379668 0.130000
v 3.066241 0.415593 0.130000
v 3.061625 0.448656 0.130000
v 3.055259 0.478741 0.130000
v 3.047199 0.505728 0.130000
v 3.037500 0.529500 0.130000
v 3.026218 0.549939 0.130000
v 3.013407 0.566926 0.130000
v 2.999125 0.580344 0.130000
v 2.983426 0.590074 0.130000
v 2.966366 0.595999 0.130000
v 2.948000 0.598000 0.130000
v 2.415942 -0.006124 0.130000
v 2.385870 0.002343 0.130000
v 2.357937 0.016156 0.130000
v 2.332296 0.035074 0.130000
v 2.309099 0.058853 0.130000
v 2.288500 0.087250 0.130000
v 2.270650 0.120022 0.130000
v 2.255704 0.156926 0.130000
v 2.243813 0.197719 0.130000
v 2.235130 0.242157 0.130000
v 2.229808 0.289999 0.130000
v 2.228000 0.341000 0.130000
v 2.229808 0.392001 0.130000
v 2.235130 0.439843 0.130000
v 2.243813 0.484281 0.130000
v 2.255704 0.525074 0.130000
v 2.270651 0.561978 0.130000
v 2.288500 0.594750 0.130000
v 2.309100 0.623147 0.130000
v 2.332296 0.646926 0.130000
v 2.357938 0.665844 0.130000
v 2.385870 0.679657 0.130000
v 2.415942 0.688124 0.130000
v 2.448000 0.691000 0.130000
v 2.480058 0.688124 0.130000
v 2.510130 0.679658 0.130000
v 2.538063 0.665844 0.130000
v 2.563704 0.646926 0.130000
v 2.586900 0.623147 0.130000
v 2.607500 0.594750 0.130000
v 2.625350 0.561978 0.130000
v 2.640296 0.525074 0.130000
v 2.652187 0.484281 0.130000
v 2.660870 0.439843 0.130000
v 2.666192 0.392001 0.130000
v 2.668000 0.341000 0.130000
v 2.666192 0.289999 0.130000
v 2.660870 0.242157 0.130000
v 2.652187 0.197719 0.130000
v 2.640296 0.156926 0.130000
v 2.625349 0.120022 0.130000
v 2.607500 0.087250 0.130000
v 2.586900 0.058853 0.130000
v 2.563704 0.035074 0.130000
v 2.538062 0.016156 0.130000
v 2.510129 0.002343 0.130000
v 2.480058 -0.006124 0.130000
v 2.448000 -0.009000 0.130000
v 2.429635 0.595999 0.130000
v 2.412575 0.590074 0.130000
v 2.396875 0.580344 0.130000
v 2.382593 0.566926 0.130000
v 2.369783 0.549939 0.130000
v 2.358500 0.529500 0.130000
v 2.348801 0.505728 0.130000
v 2.340741 0.478741 0.130000
v 2.334375 0.448656 0.130000
v 2.329759 0.415593 0.130000
v 2.326949 0.379668 0.130000
v 2.326000 0.341000 0.130000
v 2.326949 0.302332 0.130000
v 2.329759 0.266407 0.130000
v 2.334375 0.233344 0.130000
v 2.340740 0.203259 0.130000
v 2.348801 0.176272 0.130000
v 2.358500 0.152500 0.130000
v 2.369782 0.132061 0.130000
v 2.382592 0.115074 0.130000
v 2.396875 0.101656 0.130000
v 2.412574 0.091926 0.130000
v 2.429634 0.086001 0.130000
v 2.448000 0.084000 0.130000
v 2.466365 0.086001 0.130000
v 2.483425 0.091926 0.130000
v 2.499125 0.101656 0.130000
v 2.513407 0.115074 0.130000
v 2.526217 0.132061 0.130000
v 2.537500 0.152500 0.130000
v 2.547199 0.176272 0.130000
v 2.555259 0.203259 0.130000
v 2.561625 0.233344 0.130000
v 2.566241 0.266407 0.130000
v 2.569051 0.302332 0.130000
v 2.570000 0.341000 0.130000
v 2.569051 0.379668 0.130000
v 2.566241 0.415593 0.130000
v 2.561625 0.448656 0.130000
v 2.555259 0.478741 0.130000
v 2.547199 0.505728 0.130000
v 2.537500 0.529500 0.130000
v 2.526218 0.549939 0.130000
v 2.513407 0.566926 0.130000
v 2.499125 0.580344 0.130000
v 2.483426 0.590074 0.130000
v 2.466366 0.595999 0.130000
v 2.448000 0.598000 0.130000
v 1.915942 -0.006124 0.130000
v 1.885871 0.002343 0.130000
v 1.857938 0.016156 0.130000
v 1.832296 0.035074 0.130000
v 1.809100 0.058853 0.130000
v 1.788500 0.087250 0.130000
v 1.770651 0.120022 0.130000
v 1.755704 0.156926 0.130000
v 1.743813 0.197719 0.130000
v 1.735130 0.242157 0.130000
v 1.729808 0.289999 0.130000
v 1.728000 0.341000 0.130000
v 1.729808 0.392001 0.130000
v 1.735130 0.439843 0.130000
v 1.743812 0.484281 0.130000
v 1.755704 0.525074 0.130000
v 1.770651 0.561978 0.130000
v 1.788500 0.594750 0.130000
v 1.809100 0.623147 0.130000
v 1.832296 0.646926 0.130000
v 1.857938 0.665844 0.130000
v 1.885870 0.679657 0.130000
v 1.915942 0.688124 0.130000
v 1.948000 0.691000 0.130000
v 1.980058 0.688124 0.130000
v 2.010130 0.679658 0.130000
v 2.038063 0.665844 0.130000
v 2.063704 0.646926 0.130000
v 2.086901 0.623147 0.130000
v 2.107500 0.594750 0.130000
v 2.125350 0.561978 0.130000
v 2.140296 0.525074 0.130000
v 2.152188 0.484281 0.130000
v 2.160871 0.439843 0.130000
v 2.166192 0.392001 0.130000
v 2.168000 0.341000 0.130000
v 2.166192 0.289999 0.130000
v 2.160870 0.242157 0.130000
v 2.152187 0.197719 0.130000
v 2.140296 0.156926 0.130000
v 2.125350 0.120022 0.130000
v 2.107500 0.087250 0.130000
v 2.086900 0.058853 0.130000
v 2.063704 0.035074 0.130000
v 2.038063 0.016156 0.130000
v 2.010130 0.002343 0.130000
v 1.980058 -0.006124 0.130000
v 1.948000 -0.009000 0.130000
v 1.929634 0.595999 0.130000
v 1.912574 0.590074 0.130000
v 1.896875 0.580344 0.130000
v 1.882593 0.566926 0.130000
v 1.869783 0.549939 0.130000
v 1.858500 0.529500 0.130000
v 1.848801 0.505728 0.130000
v 1.840741 0.478741 0.130000
v 1.834375 0.448656 0.130000
v 1.829759 0.415593 0.130000
v 1.826949 0.379668 0.130000
v 1.826000 0.341000 0.130000
v 1.826949 0.302332 0.130000
v 1.829759 0.266407 0.130000
v 1.834375 0.233344 0.130000
v 1.840741 0.203259 0.130000
v 1.848801 0.176272 0.130000
v 1.858500 0.152500 0.130000
v 1.869783 0.132061 0.130000
v 1.882593 0.115074 0.130000
v 1.896875 0.101656 0.130000
v 1.912574 0.091926 0.130000
v 1.929634 0.086001 0.130000
v 1.948000 0.084000 0.130000
v 1.966365 0.086001 0.130000
v 1.983426 0.091926 0.130000
v 1.999125 0.101656 0.130000
v 2.013407 0.115074 0.130000
v 2.026217 0.132061 0.130000
v 2.037500 0.152500 0.130000
v 2.047199 0.176272 0.130000
v 2.055259 0.203259 0.130000
v 2.061625 0.233344 0.130000
v 2.066241 0.266407 0.130000
v 2.069051 0.302332 0.130000
v 2.070000 0.341000 0.130000
v 2.069051 0.379668 0.130000
v 2.066241 0.415593 0.130000
v 2.061625 0.448656 0.130000
v 2.055259 0.478741 0.130000
v 2.047199 0.505728 0.130000
v 2.037500 0.529500 0.130000
v 2.026218 0.549939 0.130000
v 2.013407 0.566926 0.130000
v 1.999125 0.580344 0.130000
v 1.983426 0.590074 0.130000
v 1.966366 0.595999 0.130000
v 1.948000 0.598000 0.130000
v 1.528000 -0.000000 0.130000
v 1.528000 0.531000 0.130000
v 1.526000 0.531000 0.130000
v 1.316000 0.267000 0.130000
v 1.300000 0.267000 0.130000
v 1.090000 0.531000 0.130000
v 1.088000 0.531000 0.130000
v 1.088000 -0.000000 0.130000
v 0.990000 -0.000000 0.130000
v 0.990000 0.682000 0.130000
v 1.082000 0.682000 0.130000
v 1.308000 0.402000 0.130000
v 1.535000 0.682000 0.130000
v 1.626000 0.682000 0.130000
v 1.626000 -0.000000 0.130000
v 0.817000 -0.000000 0.130000
v 0.726000 0.201000 0.130000
v 0.436000 0.201000 0.130000
v 0.350000 -0.000000 0.130000
v 0.250000 -0.000000 0.130000
v 0.543000 0.686000 0.130000
v 0.612000 0.686000 0.130000
v 0.917000 -0.000000 0.130000
v 0.686000 0.289000 0.130000
v 0.576000 0.536000 0.130000
v 0.474000 0.289000 0.130000
v 0.076000 -0.000000 0.130000
v 0.076000 0.682000 0.130000
v 0.174000 0.682000 0.130000
v 0.174000 -0.000000 0.130000
v 3.400000 0.000000 -0.130000
v 3.400000 0.682000 -0.130000
v 3.498000 0.682000 -0.130000
v 3.498000 0.000000 -0.130000
v 2.915942 -0.006124 -0.130000
v 2.885870 0.002343 -0.130000
v 2.857937 0.016156 -0.130000
v 2.832296 0.035074 -0.130000
v 2.809099 0.058853 -0.130000
v 2.788500 0.087250 -0.130000
v 2.770650 0.120022 -0.130000
v 2.755704 0.156926 -0.130000
v 2.743813 0.197719 -0.130000
v 2.735130 0.242157 -0.130000
v 2.729808 0.289999 -0.130000
v 2.728000 0.341000 -0.130000
v 2.729808 0.392001 -0.130000
v 2.735130 0.439843 -0.130000
v 2.743813 0.484281 -0.130000
v 2.755704 0.525074 -0.130000
v 2.770651 0.561978 -0.130000
v 2.788500 0.594750 -0.130000
v 2.809100 0.623147 -0.130000
v 2.832296 0.646926 -0.130000
v 2.857938 0.665844 -0.130000
v 2.885870 0.679657 -0.130000
v 2.915942 0.688124 -0.130000
v 2.948000 0.691000 -0.130000
v 2.980058 0.688124 -0.130000
v 3.010130 0.679658 -0.130000
v 3.038063 0.665844 -0.130000
v 3.063704 0.646926 -0.130000
v 3.086900 0.623147 -0.130000
v 3.107500 0.594750 -0.130000
v 3.125350 0.561978 -0.130000
v 3.140296 0.525074 -0.130000
v 3.152187 0.484281 -0.130000
v 3.160870 0.439843 -0.130000
v 3.166192 0.392001 -0.130000
v 3.168000 0.341000 -0.130000
v 3.166192 0.289999 -0.130000
v 3.160870 0.242157 -0.130000
v 3.152187 0.197719 -0.130000
v 3.140296 0.156926 -0.130000
v 3.125349 0.120022 -0.130000
v 3.107500 0.087250 -0.130000
v 3.086900 0.058853 -0.130000
v 3.063704 0.035074 -0.130000
v 3.038062 0.016156 -0.130000
v 3.010129 0.002343 -0.130000
v 2.980058 -0.006124 -0.130000
v 2.948000 -0.009000 -0.130000
v 2.929635 0.595999 -0.130000
v 2.912575 0.590074 -0.130000
v 2.896875 0.580344 -0.130000
v 2.882593 0.566926 -0.130000
v 2.869783 0.549939 -0.130000
v 2.858500 0.529500 -0.130000
v 2.848801 0.505728 -0.130000
v 2.840741 0.478741 -0.130000
v 2.834375 0.448656 -0.130000
v 2.829759 0.415593 -0.130000
v 2.826949 0.379668 -0.130000
v 2.826000 0.341000 -0.130000
v 2.826949 0.302332 -0.130000
v 2.829759 0.266407 -0.130000
v 2.834375 0.233344 -0.130000
v 2.840740 0.203259 -0.130000
v 2.848801 0.176272 -0.130000
v 2.858500 0.152500 -0.130000
v 2.869782 0.132061 -0.130000
v 2.882592 0.115074 -0.130000
v 2.896875 0.101656 -0.130000
v 2.912574 0.091926 -0.130000
v 2.929634 0.086001 -0.130000
v 2.948000 0.084000 -0.130000
v 2.966365 0.086001 -0.130000
v 2.983425 0.091926 -0.130000
v 2.999125 0.101656 -0.130000
v 3.013407 0.115074 -0.130000
v 3.026217 0.132061 -0.130000
v 3.037500 0.152500 -0.130000
v 3.047199 0.176272 -0.130000
v 3.055259 0.203259 -0.130000
v 3.061625 0.233344 -0.130000
v 3.066241 0.266407 -0.130000
v 3.069051 0.302332 -0.130000
v 3.070000 0.341000 -0.130000
v 3.069051 0.379668 -0.130000
v 3.066241 0.415593 -0.130000
v 3.061625 0.448656 -0.130000
v 3.055259 0.478741 -0.130000
v 3.047199 0.505728 -0.130000
v 3.037500 0.529500 -0.130000
v 3.026218 0.549939 -0.130000
v 3.013407 0.566926 -0.130000
v 2.999125 0.580344 -0.130000
v 2.983426 0.590074 -0.130000
v 2.966366 0.595999 -0.130000
v 2.948000 0.598000 -0.130000
v 2.415942 -0.006124 -0.130000
v 2.385870 0.002343 -0.130000
v 2.357937 0.016156 -0.130000
v 2.332296 0.035074 -0.130000
v 2.309099 0.058853 -0.130000
v 2.288500 0.087250 -0.130000
v 2.270650 0.120022 -0.130000
v 2.255704 0.156926 -0.130000
v 2.243813 0.197719 -0.130000
v 2.235130 0.242157 -0.130000
v 2.229808 0.289999 -0.130000
v 2.228000 0.341000 -0.130000
v 2.229808 0.392001 -0.130000
v 2.235130 0.439843 -0.130000
v 2.243813 0.484281 -0.130000
v 2.255704 0.525074 -0.130000
v 2.270651 0.561978 -0.130000
v 2.288500 0.594750 -0.130000
v 2.309100 0.623147 -0.130000
v 2.332296 0.646926 -0.130000
v 2.357938 0.665844 -0.130000
v 2.385870 0.679657 -0.130000
v 2.415942 0.688124 -0.130000
v 2.448000 0.691000 -0.130000
v 2.480058 0.688124 -0.130000
v 2.510130 0.679658 -0.130000
v 2.538063 0.665844 -0.130000
v 2.563704 0.646926 -0.130000
v 2.586900 0.623147 -0.130000
v 2.607500 0.594750 -0.130000
v 2.625350 0.561978 -0.130000
v 2.640296 0.525074 -0.130000
v 2.652187 0.484281 -0.130000
v 2.660870 0.439843 -0.130000
v 2.666192 0.392001 -0.130000
v 2.668000 0.341000 -0.130000
v 2.666192 0.289999 -0.130000
v 2.660870 0.242157 -0.130000
v 2.652187 0.197719 -0.130000
v 2.640296 0.156926 -0.130000
v 2.625349 0.120022 -0.130000
v 2.607500 0.087250 -0.130000
v 2.586900 0.058853 -0.130000
v 2.563704 0.035074 -0.130000
v 2.538062 0.016156 -0.130000
v 2.510129 0.002343 -0.130000
v 2.480058 -0.006124 -0.130000
v 2.448000 -0.009000 -0.130000
v 2.429635 0.595999 -0.130000
v 2.412575 0.590074 -0.130000
v 2.396875 0.580344 -0.130000
v 2.382593 0.566926 -0.130000
v 2.369783 0.549939 -0.130000
v 2.358500 0.529500 -0.130000
v 2.348801 0.505728 -0.130000
v 2.340741 0.478741 -0.130000
v 2.334375 0.448656 -0.130000
v 2.329759 0.415593 -0.130000
v 2.326949 0.379668 -0.130000
v 2.326000 0.341000 -0.130000
v 2.326949 0.302332 -0.130000
v 2.329759 0.266407 -0.130000
v 2.334375 0.233344 -0.130000
v 2.340740 0.203259 -0.130000
v 2.348801 0.176272 -0.130000
v 2.358500 0.152500 -0.130000
v 2.369782 0.132061 -0.130000
v 2.382592 0.115074 -0.130000
v 2.396875 0.101656 -0.130000
v 2.412574 0.091926 -0.130000
v 2.429634 0.086001 -0.130000
v 2.448000 0.084000 -0.130000
v 2.466365 0.086001 -0.130000
v 2.483425 0.091926 -0.130000
v 2.499125 0.101656 -0.130000
v 2.513407 0.115074 -0.130000
v 2.526217 0.132061 -0.130000
v 2.537500 0.152500 -0.130000
v 2.547199 0.176272 -0.130000
v 2.555259 0.203259 -0.130000
v 2.561625 0.233344 -0.130000
v 2.566241 0.266407 -0.130000
v 2.569051 0.302332 -0.130000
v 2.570000 0.341000 -0.130000
v 2.569051 0.379668 -0.130000
v 2.566241 0.415593 -0.130000
v 2.561625 0.448656 -0.130000
v 2.555259 0.478741 -0.130000
v 2.547199 0.505728 -0.130000
v 2.537500 0.529500 -0.130000
v 2.526218 0.549939 -0.130000
v 2.513407 0.566926 -0.130000
v 2.499125 0.580344 -0.130000
v 2.483426 0.590074 -0.130000
v 2.466366 0.595999 -0.130000
v 2.448000 0.598000 -0.130000
v 1.915942 -0.006124 -0.130000
v 1.885871 0.002343 -0.130000
v 1.857938 0.016156 -0.130000
v 1.832296 0.035074 -0.130000
v 1.809100 0.058853 -0.130000
v 1.788500 0.087250 -0.130000
v 1.770651 0.120022 -0.130000
v 1.755704 0.156926 -0.130000
v 1.743813 0.197719 -0.130000
v 1.735130 0.242157 -0.130000
v 1.729808 0.289999 -0.130000
v 1.728000 0.341000 -0.130000
v 1.729808 0.392001 -0.130000
v 1.735130 0.439843 -0.130000
v 1.743812 0.484281 -0.130000
v 1.755704 0.525074 -0.130000
v 1.770651 0.561978 -0.130000
v 1.788500 0.594750 -0.130000
v 1.809100 0.623147 -0.130000
v 1.832296 0.646926 -0.130000
v 1.857938 0.665844 -0.130000
v 1.885870 0.679657 -0.130000
v 1.915942 0.688124 -0.130000
v 1.948000 0.691000 -0.130000
v 1.980058 0.688124 -0.130000
v 2.010130 0.679658 -0.130000
v 2.038063 0.665844 -0.130000
v 2.063704 0.646926 -0.130000
v 2.086901 0.623147 -0.130000
v 2.107500 0.594750 -0.130000
v 2.125350 0.561978 -0.130000
v 2.140296 0.525074 -0.130000
v 2.152188 0.484281 -0.130000
v 2.160871 0.439843 -0.130000
v 2.166192 0.392001 -0.130000
v 2.168000 0.341000 -0.130000
v 2.166192 0.289999 -0.130000
v 2.160870 0.242157 -0.130000
v 2.152187 0.197719 -0.130000
v 2.140296 0.156926 -0.130000
v 2.125350 0.120022 -0.130000
v 2.107500 0.087250 -0.130000
v 2.086900 0.058853 -0.130000
v 2.063704 0.035074 -0.130000
v 2.038063 0.016156 -0.130000
v 2.010130 0.002343 -0.130000
v 1.980058 -0.006124 -0.130000
v 1.948000 -0.009000 -0.130000
v 1.929634 0.595999 -0.130000
v 1.912574 0.590074 -0.130000
v 1.896875 0.580344 -0.130000
v 1.882593 0.566926 -0.130000
v 1.869783 0.549939 -0.130000
v 1.858500 0.529500 -0.130000
v 1.848801 0.505728 -0.130000
v 1.840741 0.478741 -0.130000
v 1.834375 0.448656 -0.130000
v 1.829759 0.415593 -0.130000
v 1.826949 0.379668 -0.130000
v 1.826000 0.341000 -0.130000
v 1.826949 0.302332 -0.130000
v 1.829759 0.266407 -0.130000
v 1.834375 0.233344 -0.130000
v 1.840741 0.203259 -0.130000
v 1.848801 0.176272 -0.130000
v 1.858500 0.152500 -0.130000
v 1.869783 0.132061 -0.130000
v 1.882593 0.115074 -0.130000
v 1.896875 0.101656 -0.130000
v 1.912574 0.091926 -0.130000
v 1.929634 0.086001 -0.130000
v 1.948000 0.084000 -0.130000
v 1.966365 0.086001 -0.130000
v 1.983426 0.091926 -0.130000
v 1.999125 0.101656 -0.130000
v 2.013407 0.115074 -0.130000
v 2.026217 0.132061 -0.130000
v 2.037500 0.152500 -0.130000
v 2.047199 0.176272 -0.130000
v 2.055259 0.203259 -0.130000
v 2.061625 0.233344 -0.130000
v 2.066241 0.266407 -0.130000
v 2.069051 0.302332 -0.130000
v 2.070000 0.341000 -0.130000
v 2.069051 0.379668 -0.130000
v 2.066241 0.415593 -0.130000
v 2.061625 0.448656 -0.130000
v 2.055259 0.478741 -0.130000
v 2.047199 0.505728 -0.130000
v 2.037500 0.529500 -0.130000
v 2.026218 0.549939 -0.130000
v 2.013407 0.566926 -0.130000
v 1.999125 0.580344 -0.130000
v 1.983426 0.590074 -0.130000
v 1.966366 0.595999 -0.130000
v 1.948000 0.598000 -0.130000
v 1.528000 0.000000 -0.130000
v 1.528000 0.531000 -0.130000
v 1.526000 0.531000 -0.130000
v 1.316000 0.267000 -0.130000
v 1.300000 0.267000 -0.130000
v 1.090000 0.531000 -0.130000
v 1.088000 0.531000 -0.130000
v 1.088000 0.000000 -0.130000
v 0.990000 0.000000 -0.130000
v 0.990000 0.682000 -0.130000
v 1.082000 0.682000 -0.130000
v 1.308000 0.402000 -0.130000
v 1.535000 0.682000 -0.130000
v 1.626000 0.682000 -0.130000
v 1.626000 0.000000 -0.130000
v 0.817000 0.000000 -0.130000
v 0.726000 0.201000 -0.130000
v 0.436000 0.201000 -0.130000
v 0.350000 0.000000 -0.130000
v 0.250000 0.000000 -0.130000
v 0.543000 0.686000 -0.130000
v 0.612000 0.686000 -0.130000
v 0.917000 0.000000 -0.130000
v 0.686000 0.289000 -0.130000
v 0.576000 0.536000 -0.130000
v 0.474000 0.289000 -0.130000
v 0.076000 0.000000 -0.130000
v 0.076000 0.682000 -0.130000
v 0.174000 0.682000 -0.130000
v 0.174000 0.000000 -0.130000
v 0.076000 0.000000 -0.130000
v 0.076000 -0.000000 0.130000
v 0.076000 0.682000 -0.130000
v 0.076000 0.682000 0.130000
v 0.174000 0.682000 -0.130000
v 0.174000 0.682000 0.130000
v 0.174000 0.000000 -0.130000
v 0.174000 -0.000000 0.130000
v 0.817000 0.000000 -0.130000
v 0.817000 -0.000000 0.130000
v 0.726000 0.201000 -0.130000
v 0.726000 0.201000 0.130000
v 0.436000 0.201000 -0.130000
v 0.436000 0.201000 0.130000
v 0.350000 0.000000 -0.130000
v 0.350000 -0.000000 0.130000
v 0.250000 0.000000 -0.130000
v 0.250000 -0.000000 0.130000
v 0.543000 0.686000 -0.130000
v 0.543000 0.686000 0.130000
v 0.612000 0.686000 -0.130000
v 0.612000 0.686000 0.130000
v 0.917000 0.000000 -0.130000
v 0.917000 -0.000000 0.130000
v 0.686000 0.289000 -0.130000
v 0.686000 0.289000 0.130000
v 0.576000 0.536000 -0.130000
v 0.576000 0.536000 0.130000
v 0.474000 0.289000 -0.130000
v 0.474000 0.289000 0.130000
v 1.528000 0.000000 -0.130000
v 1.528000 -0.000000 0.130000
v 1.528000 0.531000 -0.130000
v 1.528000 0.531000 0.130000
v 1.526000 0.531000 -0.130000
v 1.526000 0.531000 0.130000
v 1.316000 0.267000 -0.130000
v 1.316000 0.267000 0.130000
v 1.300000 0.267000 -0.130000
v 1.300000 0.267000 0.130000
v 1.090000 0.531000 -0.130000
v 1.090000 0.531000 0.130000
v 1.088000 0.531000 -0.130000
v 1.088000 0.531000 0.130000
v 1.088000 0.000000 -0.130000
v 1.088000 -0.000000 0.130000
v 0.990000 0.000000 -0.130000
v 0.990000 -0.000000 0.130000
v 0.990000 0.682000 -0.130000
v 0.990000 0.682000 0.130000
v 1.082000 0.682000 -0.130000
v 1.082000 0.682000 0.130000
v 1.308000 0.402000 -0.130000
v 1.308000 0.402000 0.130000
v 1.535000 0.682000 -0.130000
v 1.535000 0.682000 0.130000
v 1.626000 0.682000 -0.130000
v 1.626000 0.682000 0.130000
v 1.626000 0.000000 -0.130000
v 1.626000 -0.000000 0.130000
v 1.915942 -0.006124 -0.130000
v 1.915942 -0.006124 0.130000
v 1.885871 0.002343 -0.130000
v 1.885871 0.002343 0.130000
v 1.857938 0.016156 -0.130000
v 1.857938 0.016156 0.130000
v 1.832296 0.035074 -0.130000
v 1.832296 0.035074 0.130000
v 1.809100 0.058853 -0.130000
v 1.809100 0.058853 0.130000
v 1.788500 0.087250 -0.130000
v 1.788500 0.087250 0.130000
v 1.770651 0.120022 -0.130000
v 1.770651 0.120022 0.130000
v 1.755704 0.156926 -0.130000
v 1.755704 0.156926 0.130000
v 1.743813 0.197719 -0.130000
v 1.743813 0.197719 0.130000
v 1.735130 0.242157 -0.130000
v 1.735130 0.242157 0.130000
v 1.729808 0.289999 -0.130000
v 1.729808 0.289999 0.130000
v 1.728000 0.341000 -0.130000
v 1.728000 0.341000 0.130000
v 1.729808 0.392001 -0.130000
v 1.729808 0.392001 0.130000
v 1.735130 0.439843 -0.130000
v 1.735130 0.439843 0.130000
v 1.743812 0.484281 -0.130000
v 1.743812 0.484281 0.130000
v 1.755704 0.525074 -0.130000
v 1.755704 0.525074 0.130000
v 1.770651 0.561978 -0.130000
v 1.770651 0.561978 0.130000
v 1.788500 0.594750 -0.130000
v 1.788500 0.594750 0.130000
v 1.809100 0.623147 -0.130000
v 1.809100 0.623147 0.130000
v 1.832296 0.646926 -0.130000
v 1.832296 0.646926 0.130000
v 1.857938 0.665844 -0.130000
v 1.857938 0.665844 0.130000
v 1.885870 0.679657 -0.130000
v 1.885870 0.679657 0.130000
v 1.915942 0.688124 -0.130000
v 1.915942 0.688124 0.130000
v 1.948000 0.691000 -0.130000
v 1.948000 0.691000 0.130000
v 1.980058 0.688124 -0.130000
v 1.980058 0.688124 0.130000
v 2.010130 0.679658 -0.130000
v 2.010130 0.679658 0.130000
v 2.038063 0.665844 -0.130000
v 2.038063 0.665844 0.130000
v 2.063704 0.646926 -0.130000
v 2.063704 0.646926 0.130000
v 2.086901 0.623147 -0.130000
v 2.086901 0.623147 0.130000
v 2.107500 0.594750 -0.130000
v 2.107500 0.594750 0.130000
v 2.125350 0.561978 -0.130000
v 2.125350 0.561978 0.130000
v 2.140296 0.525074 -0.130000
v 2.140296 0.525074 0.130000
v 2.152188 0.484281 -0.130000
v 2.152188 0.484281 0.130000
v 2.160871 0.439843 -0.130000
v 2.160871 0.439843 0.130000
v 2.166192 0.392001 -0.130000
v 2.166192 0.392001 0.130000
v 2.168000 0.341000 -0.130000
v 2.168000 0.341000 0.130000
v 2.166192 0.289999 -0.130000
v 2.166192 0.289999 0.130000
v 2.160870 0.242157 -0.130000
v 2.160870 0.242157 0.130000
v 2.152187 0.197719 -0.130000
v 2.152187 0.197719 0.130000
v 2.140296 0.156926 -0.130000
v 2.140296 0.156926 0.130000
v 2.125350 0.120022 -0.130000
v 2.125350 0.120022 0.130000
v 2.107500 0.087250 -0.130000
v 2.107500 0.087250 0.130000
v 2.086900 0.058853 -0.130000
v 2.086900 0.058853 0.130000
v 2.063704 0.035074 -0.130000
v 2.063704 0.035074 0.130000
v 2.038063 0.016156 -0.130000
v 2.038063 0.016156 0.130000
v 2.010130 0.002343 -0.130000
v 2.010130 0.002343 0.130000
v 1.980058 -0.006124 -0.130000
v 1.980058 -0.006124 0.130000
v 1.948000 -0.009000 -0.130000
v 1.948000 -0.009000 0.130000
v 1.929634 0.595999 -0.130000
v 1.929634 0.595999 0.130000
v 1.912574 0.590074 -0.130000
v 1.912574 0.590074 0.130000
v 1.896875 0.580344 -0.130000
v 1.896875 0.580344 0.130000
v 1.882593 0.566926 -0.130000
v 1.882593 0.566926 0.130000
v 1.869783 0.549939 -0.130000
v 1.869783 0.549939 0.130000
v 1.858500 0.529500 -0.130000
v 1.858500 0.529500 0.130000
v 1.848801 0.505728 -0.130000
v 1.848801 0.505728 0.130000
v 1.840741 0.478741 -0.130000
v 1.840741 0.478741 0.130000
v 1.834375 0.448656 -0.130000
v 1.834375 0.448656 0.130000
v 1.829759 0.415593 -0.130000
v 1.829759 0.415593 0.130000
v 1.826949 0.379668 -0.130000
v 1.826949 0.379668 0.130000
v 1.826000 0.341000 -0.130000
v 1.826000 0.341000 0.130000
v 1.826949 0.302332 -0.130000
v 1.826949 0.302332 0.130000
v 1.829759 0.266407 -0.130000
v 1.829759 0.266407 0.130000
v 1.834375 0.233344 -0.130000
v 1.834375 0.233344 0.130000
v 1.840741 0.203259 -0.130000
v 1.840741 0.203259 0.130000
v 1.848801 0.176272 -0.130000
v 1.848801 0.176272 0.130000
v 1.858500 0.152500 -0.130000
v 1.858500 0.152500 0.130000
v 1.869783 0.132061 -0.130000
v 1.869783 0.132061 0.130000
v 1.882593 0.115074 -0.130000
v 1.882593 0.115074 0.130000
v 1.896875 0.101656 -0.130000
v 1.896875 0.101656 0.130000
v 1.912574 0.091926 -0.130000
v 1.912574 0.091926 0.130000
v 1.929634 0.086001 -0.130000
v 1.929634 0.086001 0.130000
v 1.948000 0.084000 -0.130000
v 1.948000 0.084000 0.130000
v 1.966365 0.086001 -0.130000
v 1.966365 0.086001 0.130000
v 1.983426 0.091926 -0.130000
v 1.983426 0.091926 0.130000
v 1.999125 0.101656 -0.130000
v 1.999125 0.101656 0.130000
v 2.013407 0.115074 -0.130000
v 2.013407 0.115074 0.130000
v 2.026217 0.132061 -0.130000
v 2.026217 0.132061 0.130000
v 2.037500 0.152500 -0.130000
v 2.037500 0.152500 0.130000
v 2.047199 0.176272 -0.130000
v 2.047199 0.176272 0.130000
v 2.055259 0.203259 -0.130000
v 2.055259 0.203259 0.130000
v 2.061625 0.233344 -0.130000
v 2.061625 0.233344 0.130000
v 2.066241 0.266407 -0.130000
v 2.066241 0.266407 0.130000
v 2.069051 0.302332 -0.130000
v 2.069051 0.302332 0.130000
v 2.070000 0.341000 -0.130000
v 2.070000 0.341000 0.130000
v 2.069051 0.379668 -0.130000
v 2.069051 0.379668 0.130000
v 2.066241 0.415593 -0.130000
v 2.066241 0.415593 0.130000
v 2.061625 0.448656 -0.130000
v 2.061625 0.448656 0.130000
v 2.055259 0.478741 -0.130000
v 2.055259 0.478741 0.130000
v 2.047199 0.505728 -0.130000
v 2.047199 0.505728 0.130000
v 2.037500 0.529500 -0.130000
v 2.037500 0.529500 0.130000
v 2.026218 0.549939 -0.130000
v 2.026218 0.549939 0.130000
v 2.013407 0.566926 -0.130000
v 2.013407 0.566926 0.130000
v 1.999125 0.580344 -0.130000
v 1.999125 0.580344 0.130000
v 1.983426 0.590074 -0.130000
v 1.983426 0.590074 0.130000
v 1.966366 0.595999 -0.130000
v 1.966366 0.595999 0.130000
v 1.948000 0.598000 -0.130000
v 1.948000 0.598000 0.130000
v 2.415942 -0.006124 -0.130000
v 2.415942 -0.006124 0.130000
v 2.385870 0.002343 -0.130000
v 2.385870 0.002343 0.130000
v 2.357937 0.016156 -0.130000
v 2.357937 0.016156 0.130000
v 2.332296 0.035074 -0.130000
v 2.332296 0.035074 0.130000
v 2.309099 0.058853 -0.130000
v 2.309099 0.058853 0.130000
v 2.288500 0.087250 -0.130000
v 2.288500 0.087250 0.130000
v 2.270650 0.120022 -0.130000
v 2.270650 0.120022 0.130000
v 2.255704 0.156926 -0.130000
v 2.255704 0.156926 0.130000
v 2.243813 0.197719 -0.130000
v 2.243813 0.197719 0.130000
v 2.235130 0.242157 -0.130000
v 2.235130 0.242157 0.130000
v 2.229808 0.289999 -0.130000
v 2.229808 0.289999 0.130000
v 2.228000 0.341000 -0.130000
v 2.228000 0.341000 0.130000
v 2.229808 0.392001 -0.130000
v 2.229808 0.392001 0.130000
v 2.235130 0.439843 -0.130000
v 2.235130 0.439843 0.130000
v 2.243813 0.484281 -0.130000
v 2.243813 0.484281 0.130000
v 2.255704 0.525074 -0.130000
v 2.255704 0.525074 0.130000
v 2.270651 0.561978 -0.130000
v 2.270651 0.561978 0.130000
v 2.288500 0.594750 -0.130000
v 2.288500 0.594750 0.130000
v 2.309100 0.623147 -0.130000
v 2.309100 0.623147 0.130000
v 2.332296 0.646926 -0.130000
v 2.332296 0.646926 0.130000
v 2.357938 0.665844 -0.130000
v 2.357938 0.665844 0.130000
v 2.385870 0.679657 -0.130000
v 2.385870 0.679657 0.130000
v 2.415942 0.688124 -0.130000
v 2.415942 0.688124 0.130000
v 2.448000 0.691000 -0.130000
v 2.448000 0.691000 0.130000
v 2.480058 0.688124 -0.130000
v 2.480058 0.688124 0.130000
v 2.510130 0.679658 -0.130000
v 2.510130 0.679658 0.130000
v 2.538063 0.665844 -0.130000
v 2.538063 0.665844 0.130000
v 2.563704 0.646926 -0.130000
v 2.563704 0.646926 0.130000
v 2.586900 0.623147 -0.130000
v 2.586900 0.623147 0.130000
v 2.607500 0.594750 -0.130000
v 2.607500 0.594750 0.130000
v 2.625350 0.561978 -0.130000
v 2.625350 0.561978 0.130000
v 2.640296 0.525074 -0.130000
v 2.640296 0.525074 0.130000
v 2.652187 0.484281 -0.130000
v 2.652187 0.484281 0.130000
v 2.660870 0.439843 -0.130000
v 2.660870 0.439843 0.130000
v 2.666192 0.392001 -0.130000
v 2.666192 0.392001 0.130000
v 2.668000 0.341000 -0.130000
v 2.668000 0.341000 0.130000
v 2.666192 0.289999 -0.130000
v 2.666192 0.289999 0.130000
v 2.660870 0.242157 -0.130000
v 2.660870 0.242157 0.130000
v 2.652187 0.197719 -0.130000
v 2.652187 0.197719 0.130000
v 2.640296 0.156926 -0.130000
v 2.640296 0.156926 0.130000
v 2.625349 0.120022 -0.130000
v 2.625349 0.120022 0.130000
v 2.607500 0.087250 -0.130000
v 2.607500 0.087250 0.130000
v 2.586900 0.058853 -0.130000
v 2.586900 0.058853 0.130000
v 2.563704 0.035074 -0.130000
v 2.563704 0.035074 0.130000
v 2.538062 0.016156 -0.130000
v 2.538062 0.016156 0.130000
v 2.510129 0.002343 -0.130000
v 2.510129 0.002343 0.130000
v 2.480058 -0.006124 -0.130000
v 2.480058 -0.006124 0.130000
v 2.448000 -0.009000 -0.130000
v 2.448000 -0.009000 0.130000
v 2.429635 0.595999 -0.130000
v 2.429635 0.595999 0.130000
v 2.412575 0.590074 -0.130000
v 2.412575 0.590074 0.130000
v 2.396875 0.580344 -0.130000
v 2.396875 0.580344 0.130000
v 2.382593 0.566926 -0.130000
v 2.382593 0.566926 0.130000
v 2.369783 0.549939 -0.130000
v 2.369783 0.549939 0.130000
v 2.358500 0.529500 -0.130000
v 2.358500 0.529500 0.130000
v 2.348801 0.505728 -0.130000
v 2.348801 0.505728 0.130000
v 2.340741 0.478741 -0.130000
v 2.340741 0.478741 0.130000
v 2.334375 0.448656 -0.130000
v 2.334375 0.448656 0.130000
v 2.329759 0.415593 -0.130000
v 2.329759 0.415593 0.130000
v 2.326949 0.379668 -0.130000
v 2.326949 0.379668 0.130000
v 2.326000 0.341000 -0.130000
v 2.326000 0.341000 0.130000
v 2.326949 0.302332 -0.130000
v 2.326949 0.302332 0.130000
v 2.329759 0.266407 -0.130000
v 2.329759 0.266407 0.130000
v 2.334375 0.233344 -0.130000
v 2.334375 0.233344 0.130000
v 2.340740 0.203259 -0.130000
v 2.340740 0.203259 0.130000
v 2.348801 0.176272 -0.130000
v 2.348801 0.176272 0.130000
v 2.358500 0.152500 -0.130000
v 2.358500 0.152500 0.130000
v 2.369782 0.132061 -0.130000
v 2.369782 0.132061 0.130000
v 2.382592 0.115074 -0.130000
v 2.382592 0.115074 0.130000
v 2.396875 0.101656 -0.130000
v 2.396875 0.101656 0.130000
v 2.412574 0.091926 -0.130000
v 2.412574 0.091926 0.130000
v 2.429634 0.086001 -0.130000
v 2.429634 0.086001 0.130000
v 2.448000 0.084000 -0.130000
v 2.448000 0.084000 0.130000
v 2.466365 0.086001 -0.130000
v 2.466365 0.086001 0.130000
v 2.483425 0.091926 -0.130000
v 2.483425 0.091926 0.130000
v 2.499125 0.101656 -0.130000
v 2.499125 0.101656 0.130000
v 2.513407 0.115074 -0.130000
v 2.513407 0.115074 0.130000
v 2.526217 0.132061 -0.130000
v 2.526217 0.132061 0.130000
v 2.537500 0.152500 -0.130000
v 2.537500 0.152500 0.130000
v 2.547199 0.176272 -0.130000
v 2.547199 0.176272 0.130000
v 2.555259 0.203259 -0.130000
v 2.555259 0.203259 0.130000
v 2.561625 0.233344 -0.130000
v 2.561625 0.233344 0.130000
v 2.566241 0.266407 -0.130000
v 2.566241 0.266407 0.130000
v 2.569051 0.302332 -0.130000
v 2.569051 0.302332 0.130000
v 2.570000 0.341000 -0.130000
v 2.570000 0.341000 0.130000
v 2.569051 0.379668 -0.130000
v 2.569051 0.379668 0.130000
v 2.566241 0.415593 -0.130000
v 2.566241 0.415593 0.130000
v 2.561625 0.448656 -0.130000
v 2.561625 0.448656 0.130000
v 2.555259 0.478741 -0.130000
v 2.555259 0.478741 0.130000
v 2.547199 0.505728 -0.130000
v 2.547199 0.505728 0.130000
v 2.537500 0.529500 -0.130000
v 2.537500 0.529500 0.130000
v 2.526218 0.549939 -0.130000
v 2.526218 0.549939 0.130000
v 2.513407 0.566926 -0.130000
v 2.513407 0.566926 0.130000
v 2.499125 0.580344 -0.130000
v 2.499125 0.580344 0.130000
v 2.483426 0.590074 -0.130000
v 2.483426 0.590074 0.130000
v 2.466366 0.595999 -0.130000
v 2.466366 0.595999 0.130000
v 2.448000 0.598000 -0.130000
v 2.448000 0.598000 0.130000
v 2.915942 -0.006124 -0.130000
v 2.915942 -0.006124 0.130000
v 2.885870 0.002343 -0.130000
v 2.885870 0.002343 0.130000
v 2.857937 0.016156 -0.130000
v 2.857937 0.016156 0.130000
v 2.832296 0.035074 -0.130000
v 2.832296 0.035074 0.130000
v 2.809099 0.058853 -0.130000
v 2.809099 0.058853 0.130000
v 2.788500 0.087250 -0.130000
v 2.788500 0.087250 0.130000
v 2.770650 0.120022 -0.130000
v 2.770650 0.120022 0.130000
v 2.755704 0.156926 -0.130000
v 2.755704 0.156926 0.130000
v 2.743813 0.197719 -0.130000
v 2.743813 0.197719 0.130000
v 2.735130 0.242157 -0.130000
v 2.735130 0.242157 0.130000
v 2.729808 0.289999 -0.130000
v 2.729808 0.289999 0.130000
v 2.728000 0.341000 -0.130000
v 2.728000 0.341000 0.130000
v 2.729808 0.392001 -0.130000
v 2.729808 0.392001 0.130000
v 2.735130 0.439843 -0.130000
v 2.735130 0.439843 0.130000
v 2.743813 0.484281 -0.130000
v 2.743813 0.484281 0.130000
v 2.755704 0.525074 -0.130000
v 2.755704 0.525074 0.130000
v 2.770651 0.561978 -0.130000
v 2.770651 0.561978 0.130000
v 2.788500 0.594750 -0.130000
v 2.788500 0.594750 0.130000
v 2.809100 0.623147 -0.130000
v 2.809100 0.623147 0.130000
v 2.832296 0.646926 -0.130000
v 2.832296 0.646926 0.130000
v 2.857938 0.665844 -0.130000
v 2.857938 0.665844 0.130000
v 2.885870 0.679657 -0.130000
v 2.885870 0.679657 0.130000
v 2.915942 0.688124 -0.130000
v 2.915942 0.688124 0.130000
v 2.948000 0.691000 -0.130000
v 2.948000 0.691000 0.130000
v 2.980058 0.688124 -0.130000
v 2.980058 0.688124 0.130000
v 3.010130 0.679658 -0.130000
v 3.010130 0.679658 0.130000
v 3.038063 0.665844 -0.130000
v 3.038063 0.665844 0.130000
v 3.063704 0.646926 -0.130000
v 3.063704 0.646926 0.130000
v 3.086900 0.623147 -0.130000
v 3.086900 0.623147 0.130000
v 3.107500 0.594750 -0.130000
v 3.107500 0.594750 0.130000
v 3.125350 0.561978 -0.130000
v 3.125350 0.561978 0.130000
v 3.140296 0.525074 -0.130000
v 3.140296 0.525074 0.130000
v 3.152187 0.484281 -0.130000
v 3.152187 0.484281 0.130000
v 3.160870 0.439843 -0.130000
v 3.160870 0.439843 0.130000
v 3.166192 0.392001 -0.130000
v 3.166192 0.392001 0.130000
v 3.168000 0.341000 -0.130000
v 3.168000 0.341000 0.130000
v 3.166192 0.289999 -0.130000
v 3.166192 0.289999 0.130000
v 3.160870 0.242157 -0.130000
v 3.160870 0.242157 0.130000
v 3.152187 0.197719 -0.130000
v 3.152187 0.197719 0.130000
v 3.140296 0.156926 -0.130000
v 3.140296 0.156926 0.130000
v 3.125349 0.120022 -0.130000
v 3.125349 0.120022 0.130000
v 3.107500 0.087250 -0.130000
v 3.107500 0.087250 0.130000
v 3.086900 0.058853 -0.130000
v 3.086900 0.058853 0.130000
v 3.063704 0.035074 -0.130000
v 3.063704 0.035074 0.130000
v 3.038062 0.016156 -0.130000
v 3.038062 0.016156 0.130000
v 3.010129 0.002343 -0.130000
v 3.010129 0.002343 0.130000
v 2.980058 -0.006124 -0.130000
v 2.980058 -0.006124 0.130000
v 2.948000 -0.009000 -0.130000
v 2.948000 -0.009000 0.130000
v 2.929635 0.595999 -0.130000
v 2.929635 0.595999 0.130000
v 2.912575 0.590074 -0.130000
v 2.912575 0.590074 0.130000
v 2.896875 0.580344 -0.130000
v 2.896875 0.580344 0.130000
v 2.882593 0.566926 -0.130000
v 2.882593 0.566926 0.130000
v 2.869783 0.549939 -0.130000
v 2.869783 0.549939 0.130000
v 2.858500 0.529500 -0.130000
v 2.858500 0.529500 0.130000
v 2.848801 0.505728 -0.130000
v 2.848801 0.505728 0.130000
v 2.840741 0.478741 -0.130000
v 2.840741 0.478741 0.130000
v 2.834375 0.448656 -0.130000
v 2.834375 0.448656 0.130000
v 2.829759 0.415593 -0.130000
v 2.829759 0.415593 0.130000
v 2.826949 0.379668 -0.130000
v 2.826949 0.379668 0.130000
v 2.826000 0.341000 -0.130000
v 2.826000 0.341000 0.130000
v 2.826949 0.302332 -0.130000
v 2.826949 0.302332 0.130000
v 2.829759 0.266407 -0.130000
v 2.829759 0.266407 0.130000
v 2.834375 0.233344 -0.130000
v 2.834375 0.233344 0.130000
v 2.840740 0.203259 -0.130000
v 2.840740 0.203259 0.130000
v 2.848801 0.176272 -0.130000
v 2.848801 0.176272 0.130000
v 2.858500 0.152500 -0.130000
v 2.858500 0.152500 0.130000
v 2.869782 0.132061 -0.130000
v 2.869782 0.132061 0.130000
v 2.882592 0.115074 -0.130000
v 2.882592 0.115074 0.130000
v 2.896875 0.101656 -0.130000
v 2.896875 0.101656 0.130000
v 2.912574 0.091926 -0.130000
v 2.912574 0.091926 0.130000
v 2.929634 0.086001 -0.130000
v 2.929634 0.086001 0.130000
v 2.948000 0.084000 -0.130000
v 2.948000 0.084000 0.130000
v 2.966365 0.086001 -0.130000
v 2.966365 0.086001 0.130000
v 2.983425 0.091926 -0.130000
v 2.983425 0.091926 0.130000
v 2.999125 0.101656 -0.130000
v 2.999125 0.101656 0.130000
v 3.013407 0.115074 -0.130000
v 3.013407 0.115074 0.130000
v 3.026217 0.132061 -0.130000
v 3.026217 0.132061 0.130000
v 3.037500 0.152500 -0.130000
v 3.037500 0.152500 0.130000
v 3.047199 0.176272 -0.130000
v 3.047199 0.176272 0.130000
v 3.055259 0.203259 -0.130000
v 3.055259 0.203259 0.130000
v 3.061625 0.233344 -0.130000
v 3.061625 0.233344 0.130000
v 3.066241 0.266407 -0.130000
v 3.066241 0.266407 0.130000
v 3.069051 0.302332 -0.130000
v 3.069051 0.302332 0.130000
v 3.070000 0.341000 -0.130000
v 3.070000 0.341000 0.130000
v 3.069051 0.379668 -0.130000
v 3.069051 0.379668 0.130000
v 3.066241 0.415593 -0.130000
v 3.066241 0.415593 0.130000
v 3.061625 0.448656 -0.130000
v 3.061625 0.448656 0.130000
v 3.055259 0.478741 -0.130000
v 3.055259 0.478741 0.130000
v 3.047199 0.505728 -0.130000
v 3.047199 0.505728 0.130000
v 3.037500 0.529500 -0.130000
v 3.037500 0.529500 0.130000
v 3.026218 0.549939 -0.130000
v 3.026218 0.549939 0.130000
v 3.013407 0.566926 -0.130000
v 3.013407 0.566926 0.130000
v 2.999125 0.580344 -0.130000
v 2.999125 0.580344 0.130000
v 2.983426 0.590074 -0.130000
v 2.983426 0.590074 0.130000
v 2.966366 0.595999 -0.130000
v 2.966366 0.595999 0.130000
v 2.948000 0.598000 -0.130000
v 2.948000 0.598000 0.130000
v 3.400000 0.000000 -0.130000
v 3.400000 -0.000000 0.130000
v 3.400000 0.682000 -0.130000
v 3.400000 0.682000 0.130000
v 3.498000 0.682000 -0.130000
v 3.498000 0.682000 0.130000
v 3.498000 0.000000 -0.130000
v 3.498000 -0.000000 0.130000
vn -0.0000 -0.0000 1.0000
vn -0.0000 -0.0000 -1.0000
vn -0.7071 -0.7071 -0.0000
vn -0.7071 0.7071 -0.0000
vn 0.7071 0.7071 -0.0000
vn 0.7071 -0.7071 -0.0000
vn -0.5420 -0.8404 -0.0000
vn 0.5507 -0.8347 -0.0000
vn -0.8345 -0.5510 -0.0000
vn -0.5510 0.8345 -0.0000
vn 0.5449 0.8385 -0.0000
vn 0.8385 -0.5449 -0.0000
vn -0.8387 0.5446 -0.0000
vn 0.0137 -0.9999 -0.0000
vn 0.8312 0.5560 -0.0000
vn 0.4344 -0.9007 -0.0000
vn -0.4344 -0.9007 -0.0000
vn 0.4312 0.9022 -0.0000
vn 0.0011 1.0000 -0.0000
vn -0.4303 0.9027 -0.0000
vn -0.1810 -0.9835 -0.0000
vn -0.3587 -0.9335 -0.0000
vn -0.5205 -0.8539 -0.0000
vn -0.6569 -0.7540 -0.0000
vn -0.7647 -0.6444 -0.0000
vn -0.8456 -0.5339 -0.0000
vn -0.9040 -0.4275 -0.0000
vn -0.9447 -0.3280 -0.0000
vn -0.9717 -0.2361 -0.0000
vn -0.9885 -0.1513 -0.0000
vn -0.9973 -0.0730 -0.0000
vn -1.0000 -0.0000 -0.0000
vn -0.9973 0.0730 -0.0000
vn -0.9885 0.1513 -0.0000
vn -0.9717 0.2361 -0.0000
vn -0.9447 0.3280 -0.0000
vn -0.9040 0.4275 -0.0000
vn -0.8456 0.5339 -0.0000
vn -0.7647 0.6444 -0.0000
vn -0.6569 0.7540 -0.0000
vn -0.5205 0.8539 -0.0000
vn -0.3587 0.9335 -0.0000
vn -0.1810 0.9835 -0.0000
vn -0.0000 1.0000 -0.0000
vn 0.1810 0.9835 -0.0000
vn 0.3587 0.9335 -0.0000
vn 0.5205 0.8539 -0.0000
vn 0.6569 0.7540 -0.0000
vn 0.7647 0.6444 -0.0000
vn 0.8456 0.5339 -0.0000
vn 0.9040 0.4275 -0.0000
vn 0.9447 0.3280 -0.0000
vn 0.9717 0.2361 -0.0000
vn 0.9885 0.1513 -0.0000
vn 0.9973 0.0730 -0.0000
vn 1.0000 -0.0000 -0.0000
vn 0.9973 -0.0730 -0.0000
vn 0.9885 -0.1513 -0.0000
vn 0.9717 -0.2360 -0.0000
vn 0.9447 -0.3280 -0.0000
vn 0.9040 -0.4275 -0.0000
vn 0.8456 -0.5339 -0.0000
vn 0.7647 -0.6444 -0.0000
vn 0.6569 -0.7540 -0.0000
vn 0.5205 -0.8539 -0.0000
vn 0.3587 -0.9335 -0.0000
vn 0.1810 -0.9835 -0.0000
vn -0.0000 -1.0000 -0.0000
vn 0.2196 -0.9756 -0.0000
vn 0.4301 -0.9028 -0.0000
vn 0.6088 -0.7933 -0.0000
vn 0.7443 -0.6679 -0.0000
vn 0.8391 -0.5441 -0.0000
vn 0.9022 -0.4313 -0.0000
vn 0.9432 -0.3324 -0.0000
vn 0.9691 -0.2468 -0.0000
vn 0.9850 -0.1727 -0.0000
vn 0.9941 -0.1082 -0.0000
vn 0.9987 -0.0513 -0.0000
vn 0.9987 0.0513 -0.0000
vn 0.9941 0.1082 -0.0000
vn 0.9850 0.1727 -0.0000
vn 0.9691 0.2468 -0.0000
vn 0.9432 0.3324 -0.0000
vn 0.9022 0.4313 -0.0000
vn 0.8391 0.5441 -0.0000
vn 0.7443 0.6679 -0.0000
vn 0.6088 0.7933 -0.0000
vn 0.4301 0.9028 -0.0000
vn 0.2196 0.9756 -0.0000
vn -0.2196 0.9756 -0.0000
vn -0.4301 0.9028 -0.0000
vn -0.6088 0.7933 -0.0000
vn -0.7443 0.6679 -0.0000
vn -0.8391 0.5441 -0.0000
vn -0.9022 0.4313 -0.0000
vn -0.9432 0.3324 -0.0000
vn -0.9691 0.2468 -0.0000
vn -0.9850 0.1727 -0.0000
vn -0.9941 0.1082 -0.0000
vn -0.9987 0.0513 -0.0000
vn -0.9987 -0.0513 -0.0000
vn -0.9941 -0.1082 -0.0000
vn -0.9850 -0.1727 -0.0000
vn -0.9691 -0.2468 -0.0000
vn -0.9432 -0.3324 -0.0000
vn -0.9022 -0.4313 -0.0000
vn -0.8391 -0.5441 -0.0000
vn -0.7443 -0.6679 -0.0000
vn -0.6088 -0.7933 -0.0000
vn -0.4301 -0.9028 -0.0000
vn -0.2196 -0.9756 -0.0000
vn 0.9717 -0.2361 -0.0000
vt 0.000000 0.000000
vt 0.666667 0.000000
vt 0.333333 0.000000
vt 1.000000 0.000000
vt 0.231579 0.000000
vt 0.252632 0.000000
vt 0.242105 0.000000
vt 0.263158 0.000000
vt 0.221053 0.000000
vt 0.273684 0.000000
vt 0.210526 0.000000
vt 0.284211 0.000000
vt 0.200000 0.000000
vt 0.189474 0.000000
vt 0.294737 0.000000
vt 0.178947 0.000000
vt 0.305263 0.000000
vt 0.505263 0.000000
vt 0.989474 0.000000
vt 0.515789 0.000000
vt 0.978947 0.000000
vt 0.168421 0.000000
vt 0.315789 0.000000
vt 0.526316 0.000000
vt 0.968421 0.000000
vt 0.536842 0.000000
vt 0.957895 0.000000
vt 0.547368 0.000000
vt 0.947368 0.000000
vt 0.157895 0.000000
vt 0.326316 0.000000
vt 0.557895 0.000000
vt 0.936842 0.000000
vt 0.568421 0.000000
vt 0.926316 0.000000
vt 0.147368 0.000000
vt 0.336842 0.000000
vt 0.578947 0.000000
vt 0.915789 0.000000
vt 0.136842 0.000000
vt 0.347368 0.000000
vt 0.589474 0.000000
vt 0.905263 0.000000
vt 0.600000 0.000000
vt 0.894737 0.000000
vt 0.126316 0.000000
vt 0.357895 0.000000
vt 0.610526 0.000000
vt 0.884211 0.000000
vt 0.115789 0.000000
vt 0.368421 0.000000
vt 0.621053 0.000000
vt 0.873684 0.000000
vt 0.105263 0.000000
vt 0.631579 0.000000
vt 0.863158 0.000000
vt 0.378947 0.000000
vt 0.642105 0.000000
vt 0.852632 0.000000
vt 0.094737 0.000000
vt 0.389474 0.000000
vt 0.652632 0.000000
vt 0.842105 0.000000
vt 0.084211 0.000000
vt 0.400000 0.000000
vt 0.831579 0.000000
vt 0.663158 0.000000
vt 0.821053 0.000000
vt 0.673684 0.000000
vt 0.073684 0.000000
vt 0.410526 0.000000
vt 0.810526 0.000000
vt 0.684211 0.000000
vt 0.063158 0.000000
vt 0.421053 0.000000
vt 0.800000 0.000000
vt 0.694737 0.000000
vt 0.789474 0.000000
vt 0.705263 0.000000
vt 0.052632 0.000000
vt 0.431579 0.000000
vt 0.778947 0.000000
vt 0.715789 0.000000
vt 0.768421 0.000000
vt 0.726316 0.000000
vt 0.757895 0.000000
vt 0.736842 0.000000
vt 0.042105 0.000000
vt 0.442105 0.000000
vt 0.747368 0.000000
vt 0.031579 0.000000
vt 0.452632 0.000000
vt 0.021053 0.000000
vt 0.463158 0.000000
vt 0.010526 0.000000
vt 0.473684 0.000000
vt 0.484211 0.000000
vt 0.494737 0.000000
vt 0.571429 0.000000
vt 0.714286 0.000000
vt 0.642857 0.000000
vt 0.428571 0.000000
vt 0.357143 0.000000
vt 0.785714 0.000000
vt 0.928571 0.000000
vt 0.857143 0.000000
vt 0.142857 0.000000
vt 0.071429 0.000000
vt 0.500000 0.000000
vt 0.285714 0.000000
vt 0.214286 0.000000
vt 0.900000 0.000000
vt 0.700000 0.000000
vt 0.100000 0.000000
vt 0.300000 0.000000
vt 0.000000 1.000000
vt 0.250000 1.000000
vt 0.250000 0.000000
vt 0.500000 1.000000
vt 0.750000 1.000000
vt 0.750000 0.000000
vt 1.000000 1.000000
vt 0.125000 1.000000
vt 0.125000 0.000000
vt 0.375000 1.000000
vt 0.375000 0.000000
vt 0.625000 1.000000
vt 0.625000 0.000000
vt 0.875000 1.000000
vt 0.875000 0.000000
vt 0.333333 1.000000
vt 0.666667 1.000000
vt 0.066667 1.000000
vt 0.066667 0.000000
vt 0.133333 1.000000
vt 0.133333 0.000000
vt 0.200000 1.000000
vt 0.266667 1.000000
vt 0.266667 0.000000
vt 0.400000 1.000000
vt 0.466667 1.000000
vt 0.466667 0.000000
vt 0.533333 1.000000
vt 0.533333 0.000000
vt 0.600000 1.000000
vt 0.733333 1.000000
vt 0.733333 0.000000
vt 0.800000 1.000000
vt 0.866667 1.000000
vt 0.866667 0.000000
vt 0.933333 1.000000
vt 0.933333 0.000000
vt 0.020833 1.000000
vt 0.020833 0.000000
vt 0.041667 1.000000
vt 0.041667 0.000000
vt 0.062500 1.000000
vt 0.062500 0.000000
vt 0.083333 1.000000
vt 0.083333 0.000000
vt 0.104167 1.000000
vt 0.104167 0.000000
vt 0.145833 1.000000
vt 0.145833 0.000000
vt 0.166667 1.000000
vt 0.166667 0.000000
vt 0.187500 1.000000
vt 0.187500 0.000000
vt 0.208333 1.000000
vt 0.208333 0.000000
vt 0.229167 1.000000
vt 0.229167 0.000000
vt 0.270833 1.000000
vt 0.270833 0.000000
vt 0.291667 1.000000
vt 0.291667 0.000000
vt 0.312500 1.000000
vt 0.312500 0.000000
vt 0.354167 1.000000
vt 0.354167 0.000000
vt 0.395833 1.000000
vt 0.395833 0.000000
vt 0.416667 1.000000
vt 0.416667 0.000000
vt 0.437500 1.000000
vt 0.437500 0.000000
vt 0.458333 1.000000
vt 0.458333 0.000000
vt 0.479167 1.000000
vt 0.479167 0.000000
vt 0.520833 1.000000
vt 0.520833 0.000000
vt 0.541667 1.000000
vt 0.541667 0.000000
vt 0.562500 1.000000
vt 0.562500 0.000000
vt 0.583333 1.000000
vt 0.583333 0.000000
vt 0.604167 1.000000
vt 0.604167 0.000000
vt 0.645833 1.000000
vt 0.645833 0.000000
vt 0.687500 1.000000
vt 0.687500 0.000000
vt 0.708333 1.000000
vt 0.708333 0.000000
vt 0.729167 1.000000
vt 0.729167 0.000000
vt 0.770833 1.000000
vt 0.770833 0.000000
vt 0.791667 1.000000
vt 0.791667 0.000000
vt 0.812500 1.000000
vt 0.812500 0.000000
vt 0.833333 1.000000
vt 0.833333 0.000000
vt 0.854167 1.000000
vt 0.854167 0.000000
vt 0.895833 1.000000
vt 0.895833 0.000000
vt 0.916667 1.000000
vt 0.916667 0.000000
vt 0.937500 1.000000
vt 0.937500 0.000000
vt 0.958333 1.000000
vt 0.958333 0.000000
vt 0.979167 1.000000
vt 0.979167 0.000000
s 0
f 1/1/1 3/2/1 2/3/1
f 1/1/1 4/4/1 3/2/1
f 27/5/1 29/6/1 28/7/1
f 27/5/1 30/8/1 29/6/1
f 26/9/1 30/8/1 27/5/1
f 26/9/1 31/10/1 30/8/1
f 25/11/1 31/10/1 26/9/1
f 25/11/1 32/12/1 31/10/1
f 24/13/1 32/12/1 25/11/1
f 23/14/1 32/12/1 24/13/1
f 23/14/1 33/15/1 32/12/1
f 22/16/1 33/15/1 23/14/1
f 22/16/1 100/4/1 33/15/1
f 100/4/1 34/17/1 33/15/1
f 22/16/1 53/18/1 100/4/1
f 99/19/1 34/17/1 100/4/1
f 22/16/1 54/20/1 53/18/1
f 98/21/1 34/17/1 99/19/1
f 21/22/1 54/20/1 22/16/1
f 98/21/1 35/23/1 34/17/1
f 21/22/1 55/24/1 54/20/1
f 97/25/1 35/23/1 98/21/1
f 21/22/1 56/26/1 55/24/1
f 96/27/1 35/23/1 97/25/1
f 21/22/1 57/28/1 56/26/1
f 95/29/1 35/23/1 96/27/1
f 20/30/1 57/28/1 21/22/1
f 95/29/1 36/31/1 35/23/1
f 20/30/1 58/32/1 57/28/1
f 94/33/1 36/31/1 95/29/1
f 20/30/1 59/34/1 58/32/1
f 93/35/1 36/31/1 94/33/1
f 19/36/1 59/34/1 20/30/1
f 93/35/1 37/37/1 36/31/1
f 19/36/1 60/38/1 59/34/1
f 92/39/1 37/37/1 93/35/1
f 18/40/1 60/38/1 19/36/1
f 92/39/1 38/41/1 37/37/1
f 18/40/1 61/42/1 60/38/1
f 91/43/1 38/41/1 92/39/1
f 18/40/1 62/44/1 61/42/1
f 90/45/1 38/41/1 91/43/1
f 17/46/1 62/44/1 18/40/1
f 90/45/1 39/47/1 38/41/1
f 17/46/1 63/48/1 62/44/1
f 89/49/1 39/47/1 90/45/1
f 16/50/1 63/48/1 17/46/1
f 89/49/1 40/51/1 39/47/1
f 16/50/1 64/52/1 63/48/1
f 88/53/1 40/51/1 89/49/1
f 15/54/1 64/52/1 16/50/1
f 15/54/1 65/55/1 64/52/1
f 87/56/1 40/51/1 88/53/1
f 87/56/1 41/57/1 40/51/1
f 15/54/1 66/58/1 65/55/1
f 86/59/1 41/57/1 87/56/1
f 14/60/1 66/58/1 15/54/1
f 86/59/1 42/61/1 41/57/1
f 14/60/1 67/62/1 66/58/1
f 85/63/1 42/61/1 86/59/1
f 13/64/1 67/62/1 14/60/1
f 85/63/1 43/65/1 42/61/1
f 84/66/1 43/65/1 85/63/1
f 13/64/1 68/67/1 67/62/1
f 83/68/1 43/65/1 84/66/1
f 13/64/1 69/69/1 68/67/1
f 12/70/1 69/69/1 13/64/1
f 83/68/1 44/71/1 43/65/1
f 82/72/1 44/71/1 83/68/1
f 12/70/1 70/73/1 69/69/1
f 11/74/1 70/73/1 12/70/1
f 82/72/1 45/75/1 44/71/1
f 81/76/1 45/75/1 82/72/1
f 11/74/1 71/77/1 70/73/1
f 80/78/1 45/75/1 81/76/1
f 11/74/1 72/79/1 71/77/1
f 10/80/1 72/79/1 11/74/1
f 80/78/1 46/81/1 45/75/1
f 79/82/1 46/81/1 80/78/1
f 10/80/1 73/83/1 72/79/1
f 78/84/1 46/81/1 79/82/1
f 10/80/1 74/85/1 73/83/1
f 77/86/1 46/81/1 78/84/1
f 10/80/1 75/87/1 74/85/1
f 9/88/1 75/87/1 10/80/1
f 77/86/1 47/89/1 46/81/1
f 76/90/1 47/89/1 77/86/1
f 9/88/1 76/90/1 75/87/1
f 9/88/1 47/89/1 76/90/1
f 8/91/1 47/89/1 9/88/1
f 8/91/1 48/92/1 47/89/1
f 7/93/1 48/92/1 8/91/1
f 7/93/1 49/94/1 48/92/1
f 6/95/1 49/94/1 7/93/1
f 6/95/1 50/96/1 49/94/1
f 5/1/1 50/96/1 6/95/1
f 5/1/1 51/97/1 50/96/1
f 52/98/1 51/97/1 5/1/1
f 123/5/1 125/6/1 124/7/1
f 123/5/1 126/8/1 125/6/1
f 122/9/1 126/8/1 123/5/1
f 122/9/1 127/10/1 126/8/1
f 121/11/1 127/10/1 122/9/1
f 121/11/1 128/12/1 127/10/1
f 120/13/1 128/12/1 121/11/1
f 119/14/1 128/12/1 120/13/1
f 119/14/1 129/15/1 128/12/1
f 118/16/1 129/15/1 119/14/1
f 118/16/1 196/4/1 129/15/1
f 196/4/1 130/17/1 129/15/1
f 118/16/1 149/18/1 196/4/1
f 195/19/1 130/17/1 196/4/1
f 118/16/1 150/20/1 149/18/1
f 194/21/1 130/17/1 195/19/1
f 117/22/1 150/20/1 118/16/1
f 194/21/1 131/23/1 130/17/1
f 117/22/1 151/24/1 150/20/1
f 193/25/1 131/23/1 194/21/1
f 117/22/1 152/26/1 151/24/1
f 192/27/1 131/23/1 193/25/1
f 117/22/1 153/28/1 152/26/1
f 191/29/1 131/23/1 192/27/1
f 116/30/1 153/28/1 117/22/1
f 191/29/1 132/31/1 131/23/1
f 116/30/1 154/32/1 153/28/1
f 190/33/1 132/31/1 191/29/1
f 116/30/1 155/34/1 154/32/1
f 189/35/1 132/31/1 190/33/1
f 115/36/1 155/34/1 116/30/1
f 189/35/1 133/37/1 132/31/1
f 115/36/1 156/38/1 155/34/1
f 188/39/1 133/37/1 189/35/1
f 114/40/1 156/38/1 115/36/1
f 188/39/1 134/41/1 133/37/1
f 114/40/1 157/42/1 156/38/1
f 187/43/1 134/41/1 188/39/1
f 114/40/1 158/44/1 157/42/1
f 186/45/1 134/41/1 187/43/1
f 113/46/1 158/44/1 114/40/1
f 186/45/1 135/47/1 134/41/1
f 113/46/1 159/48/1 158/44/1
f 185/49/1 135/47/1 186/45/1
f 112/50/1 159/48/1 113/46/1
f 185/49/1 136/51/1 135/47/1
f 112/50/1 160/52/1 159/48/1
f 184/53/1 136/51/1 185/49/1
f 111/54/1 160/52/1 112/50/1
f 111/54/1 161/55/1 160/52/1
f 183/56/1 136/51/1 184/53/1
f 183/56/1 137/57/1 136/51/1
f 111/54/1 162/58/1 161/55/1
f 182/59/1 137/57/1 183/56/1
f 110/60/1 162/58/1 111/54/1
f 182/59/1 138/61/1 137/57/1
f 110/60/1 163/62/1 162/58/1
f 181/63/1 138/61/1 182/59/1
f 109/64/1 163/62/1 110/60/1
f 181/63/1 139/65/1 138/61/1
f 180/66/1 139/65/1 181/63/1
f 109/64/1 164/67/1 163/62/1
f 179/68/1 139/65/1 180/66/1
f 109/64/1 165/69/1 164/67/1
f 108/70/1 165/69/1 109/64/1
f 179/68/1 140/71/1 139/65/1
f 178/72/1 140/71/1 179/68/1
f 108/70/1 166/73/1 165/69/1
f 107/74/1 166/73/1 108/70/1
f 178/72/1 141/75/1 140/71/1
f 177/76/1 141/75/1 178/72/1
f 107/74/1 167/77/1 166/73/1
f 176/78/1 141/75/1 177/76/1
f 107/74/1 168/79/1 167/77/1
f 106/80/1 168/79/1 107/74/1
f 176/78/1 142/81/1 141/75/1
f 175/82/1 142/81/1 176/78/1
f 106/80/1 169/83/1 168/79/1
f 174/84/1 142/81/1 175/82/1
f 106/80/1 170/85/1 169/83/1
f 173/86/1 142/81/1 174/84/1
f 106/80/1 171/87/1 170/85/1
f 105/88/1 171/87/1 106/80/1
f 173/86/1 143/89/1 142/81/1
f 172/90/1 143/89/1 173/86/1
f 105/88/1 172/90/1 171/87/1
f 105/88/1 143/89/1 172/90/1
f 104/91/1 143/89/1 105/88/1
f 104/91/1 144/92/1 143/89/1
f 103/93/1 144/92/1 104/91/1
f 103/93/1 145/94/1 144/92/1
f 102/95/1 145/94/1 103/93/1
f 102/95/1 146/96/1 145/94/1
f 101/1/1 146/96/1 102/95/1
f 101/1/1 147/97/1 146/96/1
f 148/98/1 147/97/1 101/1/1
f 219/5/1 221/6/1 220/7/1
f 219/5/1 222/8/1 221/6/1
f 218/9/1 222/8/1 219/5/1
f 218/9/1 223/10/1 222/8/1
f 217/11/1 223/10/1 218/9/1
f 217/11/1 224/12/1 223/10/1
f 216/13/1 224/12/1 217/11/1
f 215/14/1 224/12/1 216/13/1
f 215/14/1 225/15/1 224/12/1
f 214/16/1 225/15/1 215/14/1
f 214/16/1 292/4/1 225/15/1
f 292/4/1 226/17/1 225/15/1
f 214/16/1 245/18/1 292/4/1
f 291/19/1 226/17/1 292/4/1
f 214/16/1 246/20/1 245/18/1
f 290/21/1 226/17/1 291/19/1
f 213/22/1 246/20/1 214/16/1
f 290/21/1 227/23/1 226/17/1
f 213/22/1 247/24/1 246/20/1
f 289/25/1 227/23/1 290/21/1
f 213/22/1 248/26/1 247/24/1
f 288/27/1 227/23/1 289/25/1
f 213/22/1 249/28/1 248/26/1
f 287/29/1 227/23/1 288/27/1
f 212/30/1 249/28/1 213/22/1
f 287/29/1 228/31/1 227/23/1
f 212/30/1 250/32/1 249/28/1
f 286/33/1 228/31/1 287/29/1
f 212/30/1 251/34/1 250/32/1
f 285/35/1 228/31/1 286/33/1
f 211/36/1 251/34/1 212/30/1
f 285/35/1 229/37/1 228/31/1
f 211/36/1 252/38/1 251/34/1
f 284/39/1 229/37/1 285/35/1
f 210/40/1 252/38/1 211/36/1
f 284/39/1 230/41/1 229/37/1
f 210/40/1 253/42/1 252/38/1
f 283/43/1 230/41/1 284/39/1
f 210/40/1 254/44/1 253/42/1
f 282/45/1 230/41/1 283/43/1
f 209/46/1 254/44/1 210/40/1
f 282/45/1 231/47/1 230/41/1
f 209/46/1 255/48/1 254/44/1
f 281/49/1 231/47/1 282/45/1
f 208/50/1 255/48/1 209/46/1
f 281/49/1 232/51/1 231/47/1
f 208/50/1 256/52/1 255/48/1
f 280/53/1 232/51/1 281/49/1
f 207/54/1 256/52/1 208/50/1
f 207/54/1 257/55/1 256/52/1
f 279/56/1 232/51/1 280/53/1
f 279/56/1 233/57/1 232/51/1
f 207/54/1 258/58/1 257/55/1
f 278/59/1 233/57/1 279/56/1
f 206/60/1 258/58/1 207/54/1
f 278/59/1 234/61/1 233/57/1
f 206/60/1 259/62/1 258/58/1
f 277/63/1 234/61/1 278/59/1
f 205/64/1 259/62/1 206/60/1
f 277/63/1 235/65/1 234/61/1
f 276/66/1 235/65/1 277/63/1
f 205/64/1 260/67/1 259/62/1
f 275/68/1 235/65/1 276/66/1
f 205/64/1 261/69/1 260/67/1
f 204/70/1 261/69/1 205/64/1
f 275/68/1 236/71/1 235/65/1
f 274/72/1 236/71/1 275/68/1
f 204/70/1 262/73/1 261/69/1
f 203/74/1 262/73/1 204/70/1
f 274/72/1 237/75/1 236/71/1
f 273/76/1 237/75/1 274/72/1
f 203/74/1 263/77/1 262/73/1
f 272/78/1 237/75/1 273/76/1
f 203/74/1 264/79/1 263/77/1
f 202/80/1 264/79/1 203/74/1
f 272/78/1 238/81/1 237/75/1
f 271/82/1 238/81/1 272/78/1
f 202/80/1 265/83/1 264/79/1
f 270/84/1 238/81/1 271/82/1
f 202/80/1 266/85/1 265/83/1
f 269/86/1 238/81/1 270/84/1
f 202/80/1 267/87/1 266/85/1
f 201/88/1 267/87/1 202/80/1
f 269/86/1 239/89/1 238/81/1
f 268/90/1 239/89/1 269/86/1
f 201/88/1 268/90/1 267/87/1
f 201/88/1 239/89/1 268/90/1
f 200/91/1 239/89/1 201/88/1
f 200/91/1 240/92/1 239/89/1
f 199/93/1 240/92/1 200/91/1
f 199/93/1 241/94/1 240/92/1
f 198/95/1 241/94/1 199/93/1
f 198/95/1 242/96/1 241/94/1
f 197/1/1 242/96/1 198/95/1
f 197/1/1 243/97/1 242/96/1
f 244/98/1 243/97/1 197/1/1
f 301/99/1 303/100/1 302/101/1
f 301/99/1 299/102/1 303/100/1
f 299/102/1 298/103/1 303/100/1
f 298/103/1 304/104/1 303/100/1
f 304/104/1 306/105/1 305/106/1
f 304/104/1 295/107/1 306/105/1
f 295/107/1 294/108/1 306/105/1
f 294/108/1 307/4/1 306/105/1
f 301/99/1 300/109/1 299/102/1
f 297/110/1 304/104/1 298/103/1
f 304/104/1 296/111/1 295/107/1
f 293/1/1 307/4/1 294/108/1
f 297/110/1 296/111/1 304/104/1
f 312/65/1 314/44/1 313/109/1
f 312/65/1 317/112/1 314/44/1
f 317/112/1 315/113/1 314/44/1
f 312/65/1 318/4/1 317/112/1
f 316/76/1 315/113/1 317/112/1
f 312/65/1 310/13/1 318/4/1
f 310/13/1 316/76/1 318/4/1
f 310/13/1 309/114/1 316/76/1
f 309/114/1 315/113/1 316/76/1
f 312/65/1 311/115/1 310/13/1
f 308/1/1 315/113/1 309/114/1
f 319/1/1 321/2/1 320/3/1
f 319/1/1 322/4/1 321/2/1
f 323/1/2 324/3/2 325/2/2
f 323/1/2 325/2/2 326/4/2
f 349/5/2 350/7/2 351/6/2
f 349/5/2 351/6/2 352/8/2
f 348/9/2 349/5/2 352/8/2
f 348/9/2 352/8/2 353/10/2
f 347/11/2 348/9/2 353/10/2
f 347/11/2 353/10/2 354/12/2
f 346/13/2 347/11/2 354/12/2
f 345/14/2 346/13/2 354/12/2
f 345/14/2 354/12/2 355/15/2
f 344/16/2 345/14/2 355/15/2
f 344/16/2 355/15/2 422/4/2
f 422/4/2 355/15/2 356/17/2
f 344/16/2 422/4/2 375/18/2
f 421/19/2 422/4/2 356/17/2
f 344/16/2 375/18/2 376/20/2
f 420/21/2 421/19/2 356/17/2
f 343/22/2 344/16/2 376/20/2
f 420/21/2 356/17/2 357/23/2
f 343/22/2 376/20/2 377/24/2
f 419/25/2 420/21/2 357/23/2
f 343/22/2 377/24/2 378/26/2
f 418/27/2 419/25/2 357/23/2
f 343/22/2 378/26/2 379/28/2
f 417/29/2 418/27/2 357/23/2
f 342/30/2 343/22/2 379/28/2
f 417/29/2 357/23/2 358/31/2
f 342/30/2 379/28/2 380/32/2
f 416/33/2 417/29/2 358/31/2
f 342/30/2 380/32/2 381/34/2
f 415/35/2 416/33/2 358/31/2
f 341/36/2 342/30/2 381/34/2
f 415/35/2 358/31/2 359/37/2
f 341/36/2 381/34/2 382/38/2
f 414/39/2 415/35/2 359/37/2
f 340/40/2 341/36/2 382/38/2
f 414/39/2 359/37/2 360/41/2
f 340/40/2 382/38/2 383/42/2
f 413/43/2 414/39/2 360/41/2
f 340/40/2 383/42/2 384/44/2
f 412/45/2 413/43/2 360/41/2
f 339/46/2 340/40/2 384/44/2
f 412/45/2 360/41/2 361/47/2
f 339/46/2 384/44/2 385/48/2
f 411/49/2 412/45/2 361/47/2
f 338/50/2 339/46/2 385/48/2
f 411/49/2 361/47/2 362/51/2
f 338/50/2 385/48/2 386/52/2
f 410/53/2 411/49/2 362/51/2
f 337/54/2 338/50/2 386/52/2
f 337/54/2 386/52/2 387/55/2
f 409/56/2 410/53/2 362/51/2
f 409/56/2 362/51/2 363/57/2
f 337/54/2 387/55/2 388/58/2
f 408/59/2 409/56/2 363/57/2
f 336/60/2 337/54/2 388/58/2
f 408/59/2 363/57/2 364/61/2
f 336/60/2 388/58/2 389/62/2
f 407/63/2 408/59/2 364/61/2
f 335/64/2 336/60/2 389/62/2
f 407/63/2 364/61/2 365/65/2
f 406/66/2 407/63/2 365/65/2
f 335/64/2 389/62/2 390/67/2
f 405/68/2 406/66/2 365/65/2
f 335/64/2 390/67/2 391/69/2
f 334/70/2 335/64/2 391/69/2
f 405/68/2 365/65/2 366/71/2
f 404/72/2 405/68/2 366/71/2
f 334/70/2 391/69/2 392/73/2
f 333/74/2 334/70/2 392/73/2
f 404/72/2 366/71/2 367/75/2
f 403/76/2 404/72/2 367/75/2
f 333/74/2 392/73/2 393/77/2
f 402/78/2 403/76/2 367/75/2
f 333/74/2 393/77/2 394/79/2
f 332/80/2 333/74/2 394/79/2
f 402/78/2 367/75/2 368/81/2
f 401/82/2 402/78/2 368/81/2
f 332/80/2 394/79/2 395/83/2
f 400/84/2 401/82/2 368/81/2
f 332/80/2 395/83/2 396/85/2
f 399/86/2 400/84/2 368/81/2
f 332/80/2 396/85/2 397/87/2
f 331/88/2 332/80/2 397/87/2
f 399/86/2 368/81/2 369/89/2
f 398/90/2 399/86/2 369/89/2
f 331/88/2 397/87/2 398/90/2
f 331/88/2 398/90/2 369/89/2
f 330/91/2 331/88/2 369/89/2
f 330/91/2 369/89/2 370/92/2
f 329/93/2 330/91/2 370/92/2
f 329/93/2 370/92/2 371/94/2
f 328/95/2 329/93/2 371/94/2
f 328/95/2 371/94/2 372/96/2
f 327/1/2 328/95/2 372/96/2
f 327/1/2 372/96/2 373/97/2
f 374/98/2 327/1/2 373/97/2
f 445/5/2 446/7/2 447/6/2
f 445/5/2 447/6/2 448/8/2
f 444/9/2 445/5/2 448/8/2
f 444/9/2 448/8/2 449/10/2
f 443/11/2 444/9/2 449/10/2
f 443/11/2 449/10/2 450/12/2
f 442/13/2 443/11/2 450/12/2
f 441/14/2 442/13/2 450/12/2
f 441/14/2 450/12/2 451/15/2
f 440/16/2 441/14/2 451/15/2
f 440/16/2 451/15/2 518/4/2
f 518/4/2 451/15/2 452/17/2
f 440/16/2 518/4/2 471/18/2
f 517/19/2 518/4/2 452/17/2
f 440/16/2 471/18/2 472/20/2
f 516/21/2 517/19/2 452/17/2
f 439/22/2 440/16/2 472/20/2
f 516/21/2 452/17/2 453/23/2
f 439/22/2 472/20/2 473/24/2
f 515/25/2 516/21/2 453/23/2
f 439/22/2 473/24/2 474/26/2
f 514/27/2 515/25/2 453/23/2
f 439/22/2 474/26/2 475/28/2
f 513/29/2 514/27/2 453/23/2
f 438/30/2 439/22/2 475/28/2
f 513/29/2 453/23/2 454/31/2
f 438/30/2 475/28/2 476/32/2
f 512/33/2 513/29/2 454/31/2
f 438/30/2 476/32/2 477/34/2
f 511/35/2 512/33/2 454/31/2
f 437/36/2 438/30/2 477/34/2
f 511/35/2 454/31/2 455/37/2
f 437/36/2 477/34/2 478/38/2
f 510/39/2 511/35/2 455/37/2
f 436/40/2 437/36/2 478/38/2
f 510/39/2 455/37/2 456/41/2
f 436/40/2 478/38/2 479/42/2
f 509/43/2 510/39/2 456/41/2
f 436/40/2 479/42/2 480/44/2
f 508/45/2 509/43/2 456/41/2
f 435/46/2 436/40/2 480/44/2
f 508/45/2 456/41/2 457/47/2
f 435/46/2 480/44/2 481/48/2
f 507/49/2 508/45/2 457/47/2
f 434/50/2 435/46/2 481/48/2
f 507/49/2 457/47/2 458/51/2
f 434/50/2 481/48/2 482/52/2
f 506/53/2 507/49/2 458/51/2
f 433/54/2 434/50/2 482/52/2
f 433/54/2 482/52/2 483/55/2
f 505/56/2 506/53/2 458/51/2
f 505/56/2 458/51/2 459/57/2
f 433/54/2 483/55/2 484/58/2
f 504/59/2 505/56/2 459/57/2
f 432/60/2 433/54/2 484/58/2
f 504/59/2 459/57/2 460/61/2
f 432/60/2 484/58/2 485/62/2
f 503/63/2 504/59/2 460/61/2
f 431/64/2 432/60/2 485/62/2
f 503/63/2 460/61/2 461/65/2
f 502/66/2 503/63/2 461/65/2
f 431/64/2 485/62/2 486/67/2
f 501/68/2 502/66/2 461/65/2
f 431/64/2 486/67/2 487/69/2
f 430/70/2 431/64/2 487/69/2
f 501/68/2 461/65/2 462/71/2
f 500/72/2 501/68/2 462/71/2
f 430/70/2 487/69/2 488/73/2
f 429/74/2 430/70/2 488/73/2
f 500/72/2 462/71/2 463/75/2
f 499/76/2 500/72/2 463/75/2
f 429/74/2 488/73/2 489/77/2
f 498/78/2 499/76/2 463/75/2
f 429/74/2 489/77/2 490/79/2
f 428/80/2 429/74/2 490/79/2
f 498/78/2 463/75/2 464/81/2
f 497/82/2 498/78/2 464/81/2
f 428/80/2 490/79/2 491/83/2
f 496/84/2 497/82/2 464/81/2
f 428/80/2 491/83/2 492/85/2
f 495/86/2 496/84/2 464/81/2
f 428/80/2 492/85/2 493/87/2
f 427/88/2 428/80/2 493/87/2
f 495/86/2 464/81/2 465/89/2
f 494/90/2 495/86/2 465/89/2
f 427/88/2 493/87/2 494/90/2
f 427/88/2 494/90/2 465/89/2
f 426/91/2 427/88/2 465/89/2
f 426/91/2 465/89/2 466/92/2
f 425/93/2 426/91/2 466/92/2
f 425/93/2 466/92/2 467/94/2
f 424/95/2 425/93/2 467/94/2
f 424/95/2 467/94/2 468/96/2
f 423/1/2 424/95/2 468/96/2
f 423/1/2 468/96/2 469/97/2
f 470/98/2 423/1/2 469/97/2
f 541/5/2 542/7/2 543/6/2
f 541/5/2 543/6/2 544/8/2
f 540/9/2 541/5/2 544/8/2
f 540/9/2 544/8/2 545/10/2
f 539/11/2 540/9/2 545/10/2
f 539/11/2 545/10/2 546/12/2
f 538/13/2 539/11/2 546/12/2
f 537/14/2 538/13/2 546/12/2
f 537/14/2 546/12/2 547/15/2
f 536/16/2 537/14/2 547/15/2
f 536/16/2 547/15/2 614/4/2
f 614/4/2 547/15/2 548/17/2
f 536/16/2 614/4/2 567/18/2
f 613/19/2 614/4/2 548/17/2
f 536/16/2 567/18/2 568/20/2
f 612/21/2 613/19/2 548/17/2
f 535/22/2 536/16/2 568/20/2
f 612/21/2 548/17/2 549/23/2
f 535/22/2 568/20/2 569/24/2
f 611/25/2 612/21/2 549/23/2
f 535/22/2 569/24/2 570/26/2
f 610/27/2 611/25/2 549/23/2
f 535/22/2 570/26/2 571/28/2
f 609/29/2 610/27/2 549/23/2
f 534/30/2 535/22/2 571/28/2
f 609/29/2 549/23/2 550/31/2
f 534/30/2 571/28/2 572/32/2
f 608/33/2 609/29/2 550/31/2
f 534/30/2 572/32/2 573/34/2
f 607/35/2 608/33/2 550/31/2
f 533/36/2 534/30/2 573/34/2
f 607/35/2 550/31/2 551/37/2
f 533/36/2 573/34/2 574/38/2
f 606/39/2 607/35/2 551/37/2
f 532/40/2 533/36/2 574/38/2
f 606/39/2 551/37/2 552/41/2
f 532/40/2 574/38/2 575/42/2
f 605/43/2 606/39/2 552/41/2
f 532/40/2 575/42/2 576/44/2
f 604/45/2 605/43/2 552/41/2
f 531/46/2 532/40/2 576/44/2
f 604/45/2 552/41/2 553/47/2
f 531/46/2 576/44/2 577/48/2
f 603/49/2 604/45/2 553/47/2
f 530/50/2 531/46/2 577/48/2
f 603/49/2 553/47/2 554/51/2
f 530/50/2 577/48/2 578/52/2
f 602/53/2 603/49/2 554/51/2
f 529/54/2 530/50/2 578/52/2
f 529/54/2 578/52/2 579/55/2
f 601/56/2 602/53/2 554/51/2
f 601/56/2 554/51/2 555/57/2
f 529/54/2 579/55/2 580/58/2
f 600/59/2 601/56/2 555/57/2
f 528/60/2 529/54/2 580/58/2
f 600/59/2 555/57/2 556/61/2
f 528/60/2 580/58/2 581/62/2
f 599/63/2 600/59/2 556/61/2
f 527/64/2 528/60/2 581/62/2
f 599/63/2 556/61/2 557/65/2
f 598/66/2 599/63/2 557/65/2
f 527/64/2 581/62/2 582/67/2
f 597/68/2 598/66/2 557/65/2
f 527/64/2 582/67/2 583/69/2
f 526/70/2 527/64/2 583/69/2
f 597/68/2 557/65/2 558/71/2
f 596/72/2 597/68/2 558/71/2
f 526/70/2 583/69/2 584/73/2
f 525/74/2 526/70/2 584/73/2
f 596/72/2 558/71/2 559/75/2
f 595/76/2 596/72/2 559/75/2
f 525/74/2 584/73/2 585/77/2
f 594/78/2 595/76/2 559/75/2
f 525/74/2 585/77/2 586/79/2
f 524/80/2 525/74/2 586/79/2
f 594/78/2 559/75/2 560/81/2
f 593/82/2 594/78/2 560/81/2
f 524/80/2 586/79/2 587/83/2
f 592/84/2 593/82/2 560/81/2
f 524/80/2 587/83/2 588/85/2
f 591/86/2 592/84/2 560/81/2
f 524/80/2 588/85/2 589/87/2
f 523/88/2 524/80/2 589/87/2
f 591/86/2 560/81/2 561/89/2
f 590/90/2 591/86/2 561/89/2
f 523/88/2 589/87/2 590/90/2
f 523/88/2 590/90/2 561/89/2
f 522/91/2 523/88/2 561/89/2
f 522/91/2 561/89/2 562/92/2
f 521/93/2 522/91/2 562/92/2
f 521/93/2 562/92/2 563/94/2
f 520/95/2 521/93/2 563/94/2
f 520/95/2 563/94/2 564/96/2
f 519/1/2 520/95/2 564/96/2
f 519/1/2 564/96/2 565/97/2
f 566/98/2 519/1/2 565/97/2
f 623/99/2 624/101/2 625/100/2
f 623/99/2 625/100/2 621/102/2
f 621/102/2 625/100/2 620/103/2
f 620/103/2 625/100/2 626/104/2
f 626/104/2 627/106/2 628/105/2
f 626/104/2 628/105/2 617/107/2
f 617/107/2 628/105/2 616/108/2
f 616/108/2 628/105/2 629/4/2
f 623/99/2 621/102/2 622/109/2
f 619/110/2 620/103/2 626/104/2
f 626/104/2 617/107/2 618/111/2
f 615/1/2 616/108/2 629/4/2
f 619/110/2 626/104/2 618/111/2
f 634/65/2 635/109/2 636/44/2
f 634/65/2 636/44/2 639/112/2
f 639/112/2 636/44/2 637/113/2
f 634/65/2 639/112/2 640/4/2
f 638/76/2 639/112/2 637/113/2
f 634/65/2 640/4/2 632/13/2
f 632/13/2 640/4/2 638/76/2
f 632/13/2 638/76/2 631/114/2
f 631/114/2 638/76/2 637/113/2
f 634/65/2 632/13/2 633/115/2
f 630/1/2 631/114/2 637/113/2
f 641/1/2 642/3/2 643/2/2
f 641/1/2 643/2/2 644/4/2
s 1
f 646/116/3 648/117/4 647/118/4 645/1/3
f 648/117/4 650/119/5 649/109/5 647/118/4
f 650/119/5 652/120/6 651/121/6 649/109/5
f 652/120/6 646/122/3 645/4/3 651/121/6
f 654/116/7 656/123/7 655/124/7 653/1/7
f 656/123/7 658/117/8 657/118/8 655/124/7
f 658/117/8 660/125/8 659/126/8 657/118/8
f 660/125/8 662/119/9 661/109/9 659/126/8
f 662/119/9 664/127/10 663/128/10 661/109/9
f 664/127/10 666/120/11 665/121/11 663/128/10
f 666/120/11 668/129/12 667/130/12 665/121/11
f 668/129/12 654/122/7 653/4/7 667/130/12
f 670/116/13 672/131/14 671/3/14 669/1/13
f 672/131/14 674/132/15 673/2/15 671/3/14
f 674/132/15 670/122/13 669/4/13 673/2/15
f 676/116/3 678/133/3 677/134/3 675/1/3
f 678/133/3 680/135/16 679/136/16 677/134/3
f 680/135/16 682/137/16 681/13/16 679/136/16
f 682/137/16 684/138/17 683/139/17 681/13/16
f 684/138/17 686/131/17 685/3/17 683/139/17
f 686/131/17 688/140/6 687/65/6 685/3/17
f 688/140/6 690/141/6 689/142/6 687/65/6
f 690/141/6 692/143/3 691/144/3 689/142/6
f 692/143/3 694/145/4 693/44/4 691/144/3
f 694/145/4 696/132/18 695/2/18 693/44/4
f 696/132/18 698/146/19 697/147/19 695/2/18
f 698/146/19 700/148/20 699/76/20 697/147/19
f 700/148/20 702/149/5 701/150/5 699/76/20
f 702/149/5 704/151/6 703/152/6 701/150/5
f 704/151/6 676/122/3 675/4/3 703/152/6
f 706/116/21 708/153/22 707/154/22 705/1/21
f 708/153/22 710/155/23 709/156/23 707/154/22
f 710/155/23 712/157/24 711/158/24 709/156/23
f 712/157/24 714/159/25 713/160/25 711/158/24
f 714/159/25 716/161/26 715/162/26 713/160/25
f 716/161/26 718/123/27 717/124/27 715/162/26
f 718/123/27 720/163/28 719/164/28 717/124/27
f 720/163/28 722/165/29 721/166/29 719/164/28
f 722/165/29 724/167/30 723/168/30 721/166/29
f 724/167/30 726/169/31 725/170/31 723/168/30
f 726/169/31 728/171/32 727/172/32 725/170/31
f 728/171/32 730/117/33 729/118/33 727/172/32
f 730/117/33 732/173/34 731/174/34 729/118/33
f 732/173/34 734/175/35 733/176/35 731/174/34
f 734/175/35 736/177/36 735/178/36 733/176/35
f 736/177/36 738/131/37 737/3/37 735/178/36
f 738/131/37 740/179/38 739/180/38 737/3/37
f 740/179/38 742/125/39 741/126/39 739/180/38
f 742/125/39 744/181/40 743/182/40 741/126/39
f 744/181/40 746/183/41 745/184/41 743/182/40
f 746/183/41 748/185/42 747/186/42 745/184/41
f 748/185/42 750/187/43 749/188/43 747/186/42
f 750/187/43 752/189/44 751/190/44 749/188/43
f 752/189/44 754/119/45 753/109/45 751/190/44
f 754/119/45 756/191/46 755/192/46 753/109/45
f 756/191/46 758/193/47 757/194/47 755/192/46
f 758/193/47 760/195/48 759/196/48 757/194/47
f 760/195/48 762/197/49 761/198/49 759/196/48
f 762/197/49 764/199/50 763/200/50 761/198/49
f 764/199/50 766/127/51 765/128/51 763/200/50
f 766/127/51 768/201/52 767/202/52 765/128/51
f 768/201/52 770/132/53 769/2/53 767/202/52
f 770/132/53 772/203/54 771/204/54 769/2/53
f 772/203/54 774/205/55 773/206/55 771/204/54
f 774/205/55 776/207/56 775/208/56 773/206/55
f 776/207/56 778/120/57 777/121/57 775/208/56
f 778/120/57 780/209/58 779/210/58 777/121/57
f 780/209/58 782/211/59 781/212/59 779/210/58
f 782/211/59 784/213/60 783/214/60 781/212/59
f 784/213/60 786/215/61 785/216/61 783/214/60
f 786/215/61 788/217/62 787/218/62 785/216/61
f 788/217/62 790/129/63 789/130/63 787/218/62
f 790/129/63 792/219/64 791/220/64 789/130/63
f 792/219/64 794/221/65 793/222/65 791/220/64
f 794/221/65 796/223/66 795/224/66 793/222/65
f 796/223/66 798/225/67 797/226/67 795/224/66
f 798/225/67 800/227/68 799/228/68 797/226/67
f 800/227/68 706/122/21 705/4/21 799/228/68
f 802/116/69 804/153/70 803/154/70 801/1/69
f 804/153/70 806/155/71 805/156/71 803/154/70
f 806/155/71 808/157/72 807/158/72 805/156/71
f 808/157/72 810/159/73 809/160/73 807/158/72
f 810/159/73 812/161/74 811/162/74 809/160/73
f 812/161/74 814/123/75 813/124/75 811/162/74
f 814/123/75 816/163/76 815/164/76 813/124/75
f 816/163/76 818/165/77 817/166/77 815/164/76
f 818/165/77 820/167/78 819/168/78 817/166/77
f 820/167/78 822/169/79 821/170/79 819/168/78
f 822/169/79 824/171/56 823/172/56 821/170/79
f 824/171/56 826/117/80 825/118/80 823/172/56
f 826/117/80 828/173/81 827/174/81 825/118/80
f 828/173/81 830/175/82 829/176/82 827/174/81
f 830/175/82 832/177/83 831/178/83 829/176/82
f 832/177/83 834/131/84 833/3/84 831/178/83
f 834/131/84 836/179/85 835/180/85 833/3/84
f 836/179/85 838/125/86 837/126/86 835/180/85
f 838/125/86 840/181/87 839/182/87 837/126/86
f 840/181/87 842/183/88 841/184/88 839/182/87
f 842/183/88 844/185/89 843/186/89 841/184/88
f 844/185/89 846/187/90 845/188/90 843/186/89
f 846/187/90 848/189/44 847/190/44 845/188/90
f 848/189/44 850/119/91 849/109/91 847/190/44
f 850/119/91 852/191/92 851/192/92 849/109/91
f 852/191/92 854/193/93 853/194/93 851/192/92
f 854/193/93 856/195/94 855/196/94 853/194/93
f 856/195/94 858/197/95 857/198/95 855/196/94
f 858/197/95 860/199/96 859/200/96 857/198/95
f 860/199/96 862/127/97 861/128/97 859/200/96
f 862/127/97 864/201/98 863/202/98 861/128/97
f 864/201/98 866/132/99 865/2/99 863/202/98
f 866/132/99 868/203/100 867/204/100 865/2/99
f 868/203/100 870/205/101 869/206/101 867/204/100
f 870/205/101 872/207/32 871/208/32 869/206/101
f 872/207/32 874/120/102 873/121/102 871/208/32
f 874/120/102 876/209/103 875/210/103 873/121/102
f 876/209/103 878/211/104 877/212/104 875/210/103
f 878/211/104 880/213/105 879/214/105 877/212/104
f 880/213/105 882/215/106 881/216/106 879/214/105
f 882/215/106 884/217/107 883/218/107 881/216/106
f 884/217/107 886/129/108 885/130/108 883/218/107
f 886/129/108 888/219/109 887/220/109 885/130/108
f 888/219/109 890/221/110 889/222/110 887/220/109
f 890/221/110 892/223/111 891/224/111 889/222/110
f 892/223/111 894/225/112 893/226/112 891/224/111
f 894/225/112 896/227/68 895/228/68 893/226/112
f 896/227/68 802/122/69 801/4/69 895/228/68
f 898/116/21 900/153/22 899/154/22 897/1/21
f 900/153/22 902/155/23 901/156/23 899/154/22
f 902/155/23 904/157/24 903/158/24 901/156/23
f 904/157/24 906/159/25 905/160/25 903/158/24
f 906/159/25 908/161/26 907/162/26 905/160/25
f 908/161/26 910/123/27 909/124/27 907/162/26
f 910/123/27 912/163/28 911/164/28 909/124/27
f 912/163/28 914/165/29 913/166/29 911/164/28
f 914/165/29 916/167/30 915/168/30 913/166/29
f 916/167/30 918/169/31 917/170/31 915/168/30
f 918/169/31 920/171/32 919/172/32 917/170/31
f 920/171/32 922/117/33 921/118/33 919/172/32
f 922/117/33 924/173/34 923/174/34 921/118/33
f 924/173/34 926/175/35 925/176/35 923/174/34
f 926/175/35 928/177/36 927/178/36 925/176/35
f 928/177/36 930/131/37 929/3/37 927/178/36
f 930/131/37 932/179/38 931/180/38 929/3/37
f 932/179/38 934/125/39 933/126/39 931/180/38
f 934/125/39 936/181/40 935/182/40 933/126/39
f 936/181/40 938/183/41 937/184/41 935/182/40
f 938/183/41 940/185/42 939/186/42 937/184/41
f 940/185/42 942/187/43 941/188/43 939/186/42
f 942/187/43 944/189/44 943/190/44 941/188/43
f 944/189/44 946/119/45 945/109/45 943/190/44
f 946/119/45 948/191/46 947/192/46 945/109/45
f 948/191/46 950/193/47 949/194/47 947/192/46
f 950/193/47 952/195/48 951/196/48 949/194/47
f 952/195/48 954/197/49 953/198/49 951/196/48
f 954/197/49 956/199/50 955/200/50 953/198/49
f 956/199/50 958/127/51 957/128/51 955/200/50
f 958/127/51 960/201/52 959/202/52 957/128/51
f 960/201/52 962/132/53 961/2/53 959/202/52
f 962/132/53 964/203/54 963/204/54 961/2/53
f 964/203/54 966/205/55 965/206/55 963/204/54
f 966/205/55 968/207/56 967/208/56 965/206/55
f 968/207/56 970/120/57 969/121/57 967/208/56
f 970/120/57 972/209/58 971/210/58 969/121/57
f 972/209/58 974/211/113 973/212/113 971/210/58
f 974/211/113 976/213/60 975/214/60 973/212/113
f 976/213/60 978/215/61 977/216/61 975/214/60
f 978/215/61 980/217/62 979/218/62 977/216/61
f 980/217/62 982/129/63 981/130/63 979/218/62
f 982/129/63 984/219/64 983/220/64 981/130/63
f 984/219/64 986/221/65 985/222/65 983/220/64
f 986/221/65 988/223/66 987/224/66 985/222/65
f 988/223/66 990/225/67 989/226/67 987/224/66
f 990/225/67 992/227/68 991/228/68 989/226/67
f 992/227/68 898/122/21 897/4/21 991/228/68
f 994/116/69 996/153/70 995/154/70 993/1/69
f 996/153/70 998/155/71 997/156/71 995/154/70
f 998/155/71 1000/157/72 999/158/72 997/156/71
f 1000/157/72 1002/159/73 1001/160/73 999/158/72
f 1002/159/73 1004/161/74 1003/162/74 1001/160/73
f 1004/161/74 1006/123/75 1005/124/75 1003/162/74
f 1006/123/75 1008/163/76 1007/164/76 1005/124/75
f 1008/163/76 1010/165/77 1009/166/77 1007/164/76
f 1010/165/77 1012/167/78 1011/168/78 1009/166/77
f 1012/167/78 1014/169/79 1013/170/79 1011/168/78
f 1014/169/79 1016/171/56 1015/172/56 1013/170/79
f 1016/171/56 1018/117/80 1017/118/80 1015/172/56
f 1018/117/80 1020/173/81 1019/174/81 1017/118/80
f 1020/173/81 1022/175/82 1021/176/82 1019/174/81
f 1022/175/82 1024/177/83 1023/178/83 1021/176/82
f 1024/177/83 1026/131/84 1025/3/84 1023/178/83
f 1026/131/84 1028/179/85 1027/180/85 1025/3/84
f 1028/179/85 1030/125/86 1029/126/86 1027/180/85
f 1030/125/86 1032/181/87 1031/182/87 1029/126/86
f 1032/181/87 1034/183/88 1033/184/88 1031/182/87
f 1034/183/88 1036/185/89 1035/186/89 1033/184/88
f 1036/185/89 1038/187/90 1037/188/90 1035/186/89
f 1038/187/90 1040/189/44 1039/190/44 1037/188/90
f 1040/189/44 1042/119/91 1041/109/91 1039/190/44
f 1042/119/91 1044/191/92 1043/192/92 1041/109/91
f 1044/191/92 1046/193/93 1045/194/93 1043/192/92
f 1046/193/93 1048/195/94 1047/196/94 1045/194/93
f 1048/195/94 1050/197/95 1049/198/95 1047/196/94
f 1050/197/95 1052/199/96 1051/200/96 1049/198/95
f 1052/199/96 1054/127/97 1053/128/97 1051/200/96
f 1054/127/97 1056/201/98 1055/202/98 1053/128/97
f 1056/201/98 1058/132/99 1057/2/99 1055/202/98
f 1058/132/99 1060/203/100 1059/204/100 1057/2/99
f 1060/203/100 1062/205/101 1061/206/101 1059/204/100
f 1062/205/101 1064/207/32 1063/208/32 1061/206/101
f 1064/207/32 1066/120/102 1065/121/102 1063/208/32
f 1066/120/102 1068/209/103 1067/210/103 1065/121/102
f 1068/209/103 1070/211/104 1069/212/104 1067/210/103
f 1070/211/104 1072/213/105 1071/214/105 1069/212/104
f 1072/213/105 1074/215/106 1073/216/106 1071/214/105
f 1074/215/106 1076/217/107 1075/218/107 1073/216/106
f 1076/217/107 1078/129/108 1077/130/108 1075/218/107
f 1078/129/108 1080/219/109 1079/220/109 1077/130/108
f 1080/219/109 1082/221/110 1081/222/110 1079/220/109
f 1082/221/110 1084/223/111 1083/224/111 1081/222/110
f 1084/223/111 1086/225/112 1085/226/112 1083/224/111
f 1086/225/112 1088/227/68 1087/228/68 1085/226/112
f 1088/227/68 994/122/69 993/4/69 1087/228/68
f 1090/116/21 1092/153/22 1091/154/22 1089/1/21
f 1092/153/22 1094/155/23 1093/156/23 1091/154/22
f 1094/155/23 1096/157/24 1095/158/24 1093/156/23
f 1096/157/24 1098/159/25 1097/160/25 1095/158/24
f 1098/159/25 1100/161/26 1099/162/26 1097/160/25
f 1100/161/26 1102/123/27 1101/124/27 1099/162/26
f 1102/123/27 1104/163/28 1103/164/28 1101/124/27
f 1104/163/28 1106/165/29 1105/166/29 1103/164/28
f 1106/165/29 1108/167/30 1107/168/30 1105/166/29
f 1108/167/30 1110/169/31 1109/170/31 1107/168/30
f 1110/169/31 1112/171/32 1111/172/32 1109/170/31
f 1112/171/32 1114/117/33 1113/118/33 1111/172/32
f 1114/117/33 1116/173/34 1115/174/34 1113/118/33
f 1116/173/34 1118/175/35 1117/176/35 1115/174/34
f 1118/175/35 1120/177/36 1119/178/36 1117/176/35
f 1120/177/36 1122/131/37 1121/3/37 1119/178/36
f 1122/131/37 1124/179/38 1123/180/38 1121/3/37
f 1124/179/38 1126/125/39 1125/126/39 1123/180/38
f 1126/125/39 1128/181/40 1127/182/40 1125/126/39
f 1128/181/40 1130/183/41 1129/184/41 1127/182/40
f 1130/183/41 1132/185/42 1131/186/42 1129/184/41
f 1132/185/42 1134/187/43 1133/188/43 1131/186/42
f 1134/187/43 1136/189/44 1135/190/44 1133/188/43
f 1136/189/44 1138/119/45 1137/109/45 1135/190/44
f 1138/119/45 1140/191/46 1139/192/46 1137/109/45
f 1140/191/46 1142/193/47 1141/194/47 1139/192/46
f 1142/193/47 1144/195/48 1143/196/48 1141/194/47
f 1144/195/48 1146/197/49 1145/198/49 1143/196/48
f 1146/197/49 1148/199/50 1147/200/50 1145/198/49
f 1148/199/50 1150/127/51 1149/128/51 1147/200/50
f 1150/127/51 1152/201/52 1151/202/52 1149/128/51
f 1152/201/52 1154/132/53 1153/2/53 1151/202/52
f 1154/132/53 1156/203/54 1155/204/54 1153/2/53
f 1156/203/54 1158/205/55 1157/206/55 1155/204/54
f 1158/205/55 1160/207/56 1159/208/56 1157/206/55
f 1160/207/56 1162/120/57 1161/121/57 1159/208/56
f 1162/120/57 1164/209/58 1163/210/58 1161/121/57
f 1164/209/58 1166/211/113 1165/212/113 1163/210/58
f 1166/211/113 1168/213/60 1167/214/60 1165/212/113
f 1168/213/60 1170/215/61 1169/216/61 1167/214/60
f 1170/215/61 1172/217/62 1171/218/62 1169/216/61
f 1172/217/62 1174/129/63 1173/130/63 1171/218/62
f 1174/129/63 1176/219/64 1175/220/64 1173/130/63
f 1176/219/64 1178/221/65 1177/222/65 1175/220/64
f 1178/221/65 1180/223/66 1179/224/66 1177/222/65
f 1180/223/66 1182/225/67 1181/226/67 1179/224/66
f 1182/225/67 1184/227/68 1183/228/68 1181/226/67
f 1184/227/68 1090/122/21 1089/4/21 1183/228/68
f 1186/116/69 1188/153/70 1187/154/70 1185/1/69
f 1188/153/70 1190/155/71 1189/156/71 1187/154/70
f 1190/155/71 1192/157/72 1191/158/72 1189/156/71
f 1192/157/72 1194/159/73 1193/160/73 1191/158/72
f 1194/159/73 1196/161/74 1195/162/74 1193/160/73
f 1196/161/74 1198/123/75 1197/124/75 1195/162/74
f 1198/123/75 1200/163/76 1199/164/76 1197/124/75
f 1200/163/76 1202/165/77 1201/166/77 1199/164/76
f 1202/165/77 1204/167/78 1203/168/78 1201/166/77
f 1204/167/78 1206/169/79 1205/170/79 1203/168/78
f 1206/169/79 1208/171/56 1207/172/56 1205/170/79
f 1208/171/56 1210/117/80 1209/118/80 1207/172/56
f 1210/117/80 1212/173/81 1211/174/81 1209/118/80
f 1212/173/81 1214/175/82 1213/176/82 1211/174/81
f 1214/175/82 1216/177/83 1215/178/83 1213/176/82
f 1216/177/83 1218/131/84 1217/3/84 1215/178/83
f 1218/131/84 1220/179/85 1219/180/85 1217/3/84
f 1220/179/85 1222/125/86 1221/126/86 1219/180/85
f 1222/125/86 1224/181/87 1223/182/87 1221/126/86
f 1224/181/87 1226/183/88 1225/184/88 1223/182/87
f 1226/183/88 1228/185/89 1227/186/89 1225/184/88
f 1228/185/89 1230/187/90 1229/188/90 1227/186/89
f 1230/187/90 1232/189/44 1231/190/44 1229/188/90
f 1232/189/44 1234/119/91 1233/109/91 1231/190/44
f 1234/119/91 1236/191/92 1235/192/92 1233/109/91
f 1236/191/92 1238/193/93 1237/194/93 1235/192/92
f 1238/193/93 1240/195/94 1239/196/94 1237/194/93
f 1240/195/94 1242/197/95 1241/198/95 1239/196/94
f 1242/197/95 1244/199/96 1243/200/96 1241/198/95
f 1244/199/96 1246/127/97 1245/128/97 1243/200/96
f 1246/127/97 1248/201/98 1247/202/98 1245/128/97
f 1248/201/98 1250/132/99 1249/2/99 1247/202/98
f 1250/132/99 1252/203/100 1251/204/100 1249/2/99
f 1252/203/100 1254/205/101 1253/206/101 1251/204/100
f 1254/205/101 1256/207/32 1255/208/32 1253/206/101
f 1256/207/32 1258/120/102 1257/121/102 1255/208/32
f 1258/120/102 1260/209/103 1259/210/103 1257/121/102
f 1260/209/103 1262/211/104 1261/212/104 1259/210/103
f 1262/211/104 1264/213/105 1263/214/105 1261/212/104
f 1264/213/105 1266/215/106 1265/216/106 1263/214/105
f 1266/215/106 1268/217/107 1267/218/107 1265/216/106
f 1268/217/107 1270/129/108 1269/130/108 1267/218/107
f 1270/129/108 1272/219/109 1271/220/109 1269/130/108
f 1272/219/109 1274/221/110 1273/222/110 1271/220/109
f 1274/221/110 1276/223/111 1275/224/111 1273/222/110
f 1276/223/111 1278/225/112 1277/226/112 1275/224/111
f 1278/225/112 1280/227/68 1279/228/68 1277/226/112
f 1280/227/68 1186/122/69 1185/4/69 1279/228/68
f 1282/116/3 1284/117/4 1283/118/4 1281/1/3
f 1284/117/4 1286/119/5 1285/109/5 1283/118/4
f 1286/119/5 1288/120/6 1287/121/6 1285/109/5
f 1288/120/6 1282/122/3 1281/4/3 1287/121/6
